<svg xmlns="http://www.w3.org/2000/svg" xmlns:xlink="http://www.w3.org/1999/xlink" viewBox="0 0 1920 1080"><defs><style>.cls-1,.cls-17,.cls-27{fill:none;}.cls-2{isolation:isolate;}.cls-3{fill:url(#linear-gradient);}.cls-4{opacity:0.64;}.cls-5{clip-path:url(#clip-path);}.cls-19,.cls-6{opacity:0.3;}.cls-6{mix-blend-mode:lighten;fill:url(#radial-gradient);}.cls-7{fill:#bcbdbe;}.cls-30,.cls-8{fill:#e5e5e5;}.cls-9{fill:url(#linear-gradient-2);}.cls-10{fill:#022652;}.cls-11{fill:#31536c;}.cls-12,.cls-14,.cls-15,.cls-18,.cls-26{fill:#fff;}.cls-12{mix-blend-mode:screen;}.cls-13,.cls-25,.cls-28,.cls-29{fill:#32526e;}.cls-15{font-size:27.24px;font-family:OpenSans-SemiBold, Open Sans;font-weight:600;}.cls-16{font-size:33.98px;}.cls-17{stroke:#fff;stroke-width:2.19px;}.cls-17,.cls-27{stroke-miterlimit:10;}.cls-18{font-size:33.36px;}.cls-18,.cls-25,.cls-26,.cls-28,.cls-29,.cls-30{font-family:OpenSans-Bold, Open Sans;font-weight:700;}.cls-20{fill:url(#linear-gradient-3);}.cls-21{fill:#f0f8ff;}.cls-22{fill:#28d4bf;}.cls-23{fill:#e31b25;}.cls-24{fill:#1f398e;}.cls-25{font-size:17.67px;}.cls-26,.cls-28{font-size:17.39px;}.cls-27{stroke:#000;stroke-width:0.93px;}.cls-29{font-size:18.43px;}.cls-30{font-size:35.95px;}.cls-31{opacity:0.21;}.cls-32{fill:#6536d8;}.cls-33{fill:#f0c6b4;}.cls-34{fill:#eba298;}.cls-35{fill:#0c4156;}.cls-36{fill:#0f4b6a;}.cls-37{fill:#773ceb;}.cls-38{fill:#001f51;}.cls-39{fill:#303033;}.cls-40{fill:#4d1b0b;}.cls-41{fill:url(#linear-gradient-4);}.cls-42{fill:url(#linear-gradient-5);}.cls-43{fill:url(#linear-gradient-6);}.cls-44{fill:#d1ebff;}.cls-45{fill:url(#linear-gradient-7);}.cls-46{fill:#72b5e8;}.cls-47{fill:url(#linear-gradient-8);}.cls-48{fill:#a8cff0;opacity:0.5;}</style><linearGradient id="linear-gradient" x1="951.79" y1="-12.52" x2="968.34" y2="1095.89" gradientUnits="userSpaceOnUse"><stop offset="0" stop-color="#4180e2"/><stop offset="0.11" stop-color="#4f82e5"/><stop offset="0.51" stop-color="#7e87f1"/><stop offset="0.82" stop-color="#9b8af7"/><stop offset="1" stop-color="#a68bfa"/></linearGradient><clipPath id="clip-path"><rect class="cls-1" x="0.8" width="1918.4" height="1080"/></clipPath><radialGradient id="radial-gradient" cx="948.71" cy="652.49" r="962.78" gradientTransform="translate(14.45)" gradientUnits="userSpaceOnUse"><stop offset="0" stop-color="#fff"/><stop offset="0.11" stop-color="#fbfcfe"/><stop offset="0.24" stop-color="#eef4fa"/><stop offset="0.37" stop-color="#d8e7f3"/><stop offset="0.5" stop-color="#bad4e9"/><stop offset="0.63" stop-color="#92bcdd"/><stop offset="0.77" stop-color="#639fcf"/><stop offset="0.91" stop-color="#2b7dbd"/><stop offset="1" stop-color="#0062b0"/></radialGradient><linearGradient id="linear-gradient-2" x1="376.16" y1="172.88" x2="545.33" y2="536.36" gradientUnits="userSpaceOnUse"><stop offset="0" stop-color="#1574eb"/><stop offset="1" stop-color="#1f398e"/></linearGradient><linearGradient id="linear-gradient-3" x1="1183.27" y1="267.1" x2="1709.88" y2="267.1" xlink:href="#linear-gradient-2"/><linearGradient id="linear-gradient-4" x1="892.85" y1="447.08" x2="1097.58" y2="447.08" xlink:href="#linear-gradient-2"/><linearGradient id="linear-gradient-5" x1="988.22" y1="473.21" x2="1033.69" y2="305.88" gradientUnits="userSpaceOnUse"><stop offset="0" stop-color="#25054d"/><stop offset="1" stop-color="#45108a"/></linearGradient><linearGradient id="linear-gradient-6" x1="1080.17" y1="431.23" x2="906.53" y2="431.23" gradientUnits="userSpaceOnUse"><stop offset="0" stop-color="#45108a"/><stop offset="0.14" stop-color="#4d1299"/><stop offset="0.32" stop-color="#5915b3"/><stop offset="0.61" stop-color="#25054d"/><stop offset="0.83" stop-color="#3b0c75"/><stop offset="0.99" stop-color="#2f0960"/></linearGradient><linearGradient id="linear-gradient-7" x1="912.79" y1="376.9" x2="1077.64" y2="376.9" xlink:href="#linear-gradient-2"/><linearGradient id="linear-gradient-8" x1="892.85" y1="155.96" x2="1097.58" y2="155.96" xlink:href="#linear-gradient-2"/></defs><g class="cls-2"><g id="Annuity_Calculator" data-name="Annuity Calculator"><rect class="cls-3" x="0.06" y="1.68" width="1920" height="1080"/><g class="cls-4"><g class="cls-5"><path class="cls-6" d="M1921.18,99.48V96.36l-13.55,7.85-44.9-26,44.9-26,13.55,7.85V57l-10.86-6.29,10.86-6.29v-3.1l-13.55,7.83-44.9-26,44.9-26L1921.18,5V1.86l-10.86-6.28,10.86-6.29v-3.12L1907.63-6l-44.9-26,44.9-26,13.55,7.84v-3.11l-10.86-6.28,10.86-6.3v-3.1l-13.55,7.84-44.9-26,44.9-26,13.55,7.84v-3.12l-10.86-6.29,10.86-6.27V-124l-13.55,7.84-44.9-26,44.9-26,13.55,7.83v-3.1l-10.86-6.29,10.86-6.29v-3.12l-13.55,7.85-44.9-26,44.9-26,13.55,7.85v-3.12l-10.86-6.29,10.86-6.27v-3.12l-13.55,7.85-44.9-26,44.9-26,13.55,7.85v-3.13l-10.86-6.27,10.86-6.29v-3.11l-13.55,7.84-44.9-26,4.9-2.84h-5.38L1860-309l-2.23-1.28h-5.36l4.89,2.84-44.9,26-44.9-26,4.9-2.84h-5.38l-2.21,1.28-2.21-1.28h-5.38l4.9,2.84-44.91,26-44.89-26,4.89-2.84h-5.38l-2.21,1.28-2.21-1.28h-5.39l4.91,2.84-44.9,26-44.91-26,4.92-2.84h-5.4l-2.21,1.28-2.2-1.28h-5.4l4.91,2.84-44.9,26-44.91-26,4.92-2.84h-5.39l-2.21,1.28-2.21-1.28h-5.39l4.9,2.84-44.89,26-44.92-26,4.92-2.84h-5.39l-2.22,1.28-2.2-1.28h-5.39l4.92,2.84-44.91,26-44.91-26,4.91-2.84h-5.39l-2.2,1.28-2.22-1.28h-5.37l4.89,2.84-44.9,26-49.81-28.83H1186l-44.84,26-44.86-26h-5.49l-44.85,26-44.85-26h-5.49l-44.84,26-44.84-26h-5.5l-44.85,26-44.84-26h-5.5l-49.81,28.83-44.9-26,4.92-2.84h-5.4L707.86-309l-2.2-1.28h-5.39l4.92,2.84-44.91,26-44.91-26,4.9-2.84H614.9L612.69-309l-2.22-1.28h-5.38l4.9,2.84-44.89,26-44.92-26,4.91-2.84h-5.38L517.5-309l-2.22-1.28H509.9l4.91,2.84-44.92,26-44.88-26,4.89-2.84h-5.38L422.31-309l-2.22-1.28h-5.38l4.9,2.84-44.89,26-44.9-26,4.89-2.84h-5.37L327.13-309l-2.21-1.28h-5.41l4.92,2.84-44.9,26-44.91-26,4.91-2.84h-5.39L231.93-309l-2.22-1.28h-5.37l4.91,2.84-44.91,26-44.9-26,4.9-2.84H139l-2.2,1.28-2.21-1.28h-5.39l4.9,2.84-44.9,26-44.9-26,4.9-2.84H43.78L41.56-309l-2.21-1.28H34l4.91,2.84L.42-285.2v3.11l41.14-23.8,44.9,26-44.9,26L.42-277.73v3.12l38.45,22.24L.42-230.11V-227L41.56-250.8l44.9,26-44.9,26L.42-222.64v3.12l38.45,22.26L.42-175v3.12L41.56-195.7l44.9,26-44.9,26L.42-167.53v3.11l38.45,22.26L.42-119.91v3.11l41.14-23.81,44.9,26-44.9,26L.42-112.44v3.1L38.87-87.08.42-64.82v3.12L41.56-85.52l44.9,26-44.9,26L.42-57.35v3.12L38.87-32,.42-9.72v3.11l41.14-23.8,44.9,26-44.9,26L.42-2.25V.86L38.87,23.11.42,45.37v3.11l41.14-23.8,44.9,26-44.9,26L.42,52.84V56L38.87,78.21.42,100.47v3.12L41.56,79.77l44.9,26-44.9,26L.42,107.94v3.12l38.45,22.26L.42,155.55v3.13l41.14-23.82,44.9,26-48.2,27.91L.42,166.85V170l35.14,20.35L.42,210.66v3.11l37.84-21.89,44.89,26-44.89,26L.42,222v3.1l35.14,20.35L.42,265.76v3.11L38.26,247l44.89,26L38.26,299,.42,277v3.13l35.14,20.34L.42,320.84V324l37.84-21.9,44.89,26L38.26,354,.42,332.15v3.11L35.56,355.6.42,376v3.1l37.84-21.88L88.11,386,43.22,412,.42,387.25v3.11l40.1,23.21L.42,436.78v3.12l42.8-24.77,44.89,26-44.89,26L.42,442.33v3.12l40.1,23.21L.42,491.87V495l42.8-24.77,44.89,26-44.89,26L.42,497.44v3.1l40.1,23.23L.42,547v3.11l42.8-24.77,44.89,26-44.89,26L.42,552.53v3.12l40.1,23.21L.42,602.07v3.11l42.8-24.76,44.89,26-44.89,26L.42,607.62v3.12l40.1,23.2L.42,657.15v3.13l42.8-24.78,44.89,26-44.89,26L.42,662.71v3.12l40.1,23.22L.42,712.26v3.1l42.8-24.76,44.89,26-44.89,26L.42,717.81v3.12l40.1,23.21L.42,767.35v3.12l42.8-24.77,44.89,26-44.89,26L.42,772.91V776l40.1,23.2L.42,822.44v3.12l42.8-24.77,44.89,26-44.89,26L.42,828v3.13l40.1,23.22L.42,877.55v3.1l42.8-24.76,44.89,26-44.89,26L.42,883.1v3.12l40.1,23.21L.42,932.63v3.12L43.22,911l44.89,26L43.22,963,.42,938.2v3.11l40.1,23.21L.42,987.73v3.12l42.8-24.77,44.89,26-44.89,26L.42,993.29v3.11l40.1,23.22L.42,1042.83v3.11l42.8-24.77,44.89,26L38.26,1076,.42,1054.12v3.12l35.14,20.34L.42,1097.92V1101l37.84-21.9,44.89,26-44.89,26L.42,1109.22v3.11l35.14,20.35L.42,1153v3.11l37.84-21.89,44.89,26-44.89,26L.42,1164.32v3.11l35.14,20.34L.42,1208.11v3.12l37.84-21.9,44.89,26-44.89,26L.42,1219.41v3.12l35.14,20.34L.42,1263.21v3.12l37.84-21.9,48.2,27.89-44.9,26L.42,1274.51v3.11l38.45,22.26L.42,1322.13v3.12l41.14-23.82,44.9,26-44.9,26L.42,1329.6v3.11L38.87,1355,.42,1377.23v3.12l41.14-23.82,44.9,26-44.9,26L.42,1384.7v3.12l38.45,22.24L.42,1432.32v3.12l41.14-23.82,44.9,26-44.9,26L.42,1439.79v3.12l38.45,22.25L.42,1487.41v3.12l41.14-23.81,44.9,26-44.9,26L.42,1494.89V1498l38.45,22.26L.42,1542.52v3.11l41.14-23.82,44.9,26-44.9,26L.42,1550v3.11l38.45,22.25L.42,1597.6v3.13l41.14-23.82,44.9,26L65.1,1615.27h5.36l18.69-10.81,18.69,10.81h5.38L91.84,1602.9l44.91-26,44.9,26-21.38,12.37h5.38l18.69-10.81L203,1615.27h5.36L187,1602.9l44.9-26,44.91,26-21.38,12.37h5.39l18.68-10.81,18.67,10.81h5.4l-21.38-12.37,44.91-26,44.89,26-21.37,12.37H356l18.69-10.81,18.67,10.81h5.39L377.4,1602.9l44.91-26,44.9,26-21.38,12.37h5.4l18.66-10.81,18.69,10.81H494L472.6,1602.9l44.9-26,44.9,26L541,1615.27h5.39l18.69-10.81,18.66,10.81h5.4l-21.39-12.37,44.92-26,44.89,26-21.36,12.37h5.38l18.68-10.81L679,1615.27h5.38L663,1602.9l44.88-26,44.93,26-21.39,12.37h5.38l18.68-10.81,18.69,10.81h5.38l-21.38-12.37,44.9-26,44.91,26-21.37,12.37H832l18.68-10.81,18.69,10.81h5.38l-21.38-12.37,44.91-26,44.9,26-21.37,12.37h5.37l18.69-10.81,18.69,10.81h5.37l-21.37-12.37L998.39,1574l49.86,28.86-21.38,12.37h5.4l18.66-10.81,18.7,10.81H1075l-21.37-12.37,44.9-26,44.9,26-21.38,12.37h5.39l18.69-10.81,18.67,10.81h5.39l-21.39-12.37,44.92-26,44.89,26-21.37,12.37h5.39l18.68-10.81,18.69,10.81h5.37L1244,1602.9l44.9-26,44.89,26-21.37,12.37h5.38l18.69-10.81,18.67,10.81h5.39l-21.38-12.37,44.9-26,44.91,26-21.37,12.37H1413l18.68-10.81,18.69,10.81h5.38l-21.38-12.37,44.91-26,44.91,26-21.38,12.37h5.38l18.68-10.81,18.68,10.81h5.38l-21.37-12.37,44.9-26,44.9,26L1598,1615.27h5.37l18.69-10.81,18.68,10.81h5.38l-21.37-12.37,44.9-26,44.9,26-21.38,12.37h5.39l18.68-10.81,18.69,10.81h5.39L1720,1602.9l44.9-26,44.9,26-21.38,12.37h5.39l18.68-10.81,18.69,10.81h5.39l-21.38-12.37,44.9-26,44.89,26-21.37,12.37H1889l18.68-10.81,13.55,7.84v-3.12l-10.86-6.28,10.86-6.28v-3.12l-13.55,7.84-44.9-26,44.9-26,13.55,7.85v-3.12l-10.86-6.29,10.86-6.28v-3.11l-13.55,7.83-44.9-26,44.9-26,13.55,7.84V1499l-10.86-6.29,10.86-6.29v-3.12l-13.55,7.85-44.9-26,44.9-26,13.55,7.85v-3.12l-10.86-6.29,10.86-6.29v-3.1l-13.55,7.83-44.9-26,44.9-26,13.55,7.85v-3.12l-10.86-6.28,10.86-6.29v-3.11l-13.55,7.84-44.9-26,44.9-26,13.55,7.84v-3.12l-10.86-6.29,10.86-6.28V1318l-13.55,7.84-44.9-26,44.9-26,13.55,7.85v-3.12l-10.86-6.29,10.86-6.27v-3.12l-13.55,7.83-44.9-26,48.2-27.89,10.25,5.93v-3.12l-7.56-4.37,7.56-4.38v-3.1l-10.25,5.92-44.9-26,44.9-26,10.25,5.93v-3.11l-7.56-4.38,7.56-4.37v-3.11l-10.25,5.93-44.9-26,44.9-26,10.25,5.92v-3.11l-7.56-4.36,7.56-4.38v-3.12l-10.25,5.93-49.86-28.86,44.91-26,15.2,8.81v-3.13l-12.52-7.23,12.52-7.25v-3.11l-15.2,8.8-44.91-26,44.91-26,15.2,8.79v-3.1l-12.52-7.25,12.52-7.24v-3.12l-15.2,8.8-44.91-26,44.91-26,15.2,8.8v-3.12L1908.66,937l12.52-7.23v-3.12l-15.2,8.79-44.91-26,44.91-26,15.2,8.8v-3.12l-12.52-7.24,12.52-7.25v-3.1l-15.2,8.79-44.91-26,44.91-26,15.2,8.79V834l-12.52-7.25,12.52-7.24v-3.11l-15.2,8.81-44.91-26,44.91-26,15.2,8.8v-3.12l-12.52-7.23,12.52-7.24v-3.12l-15.2,8.8-44.91-26,44.91-26,15.2,8.79v-3.11l-12.52-7.24,12.52-7.25v-3.13L1906,715l-44.91-26,44.91-26,15.2,8.79v-3.1l-12.52-7.23,12.52-7.25v-3.12L1906,660l-44.91-26L1906,608l15.2,8.8v-3.12l-12.52-7.24,12.52-7.24V596l-15.2,8.8-44.91-26,44.91-26,15.2,8.79v-3.11l-12.52-7.24,12.52-7.25V541l-15.2,8.79-44.91-26,44.91-26,15.2,8.81v-3.12l-12.52-7.25,12.52-7.23v-3.12l-15.2,8.81-44.91-26,44.91-26,15.2,8.79v-3.12l-12.52-7.23,12.52-7.25v-3.11l-15.2,8.8-44.91-26,44.91-26,15.2,8.8v-3.12L1908.66,386l12.52-7.24v-3.12l-15.2,8.81-44.91-26,49.86-28.86,10.25,5.91v-3.1l-7.56-4.37,7.56-4.38v-3.12l-10.25,5.94-44.9-26,44.9-26,10.25,5.94v-3.12l-7.56-4.38,7.56-4.37v-3.11l-10.25,5.94-44.9-26,44.9-26,10.25,5.92v-3.11l-7.56-4.37,7.56-4.38v-3.12l-10.25,5.93-48.2-27.9,44.9-26,13.55,7.85v-3.12l-10.86-6.29,10.86-6.27v-3.13l-13.55,7.85-44.9-26,44.9-26,13.55,7.84V112l-10.86-6.27Zm-16.25-48.82-44.89,26-44.9-26,44.9-26ZM1667-32l-44.9,26-44.91-26,44.91-26Zm-42.21-27.55,44.9-26,44.9,26-44.9,26Zm-626.37,690-44.9-26,44.9-26,44.91,26ZM1046,606.05l44.91,26L1046,658l-44.89-26ZM995.7,632l-44.9,26-44.91-26,44.91-26Zm-92.49-1.56-44.92-26,44.92-26,44.89,26Zm-2.7,1.56L852.31,660l-44.91-26,48.21-27.89Zm-3.3,57-44.9,26-44.91-26,44.91-26ZM855,661.49l48.21-27.89,44.89,26-48.2,27.91Zm95.8-.35,44.9,26L947.49,715l-44.89-26Zm2.69-1.56,44.9-26,44.91,26-44.91,26Zm92.49,1.56,48.21,27.91-44.91,26-48.19-27.92Zm2.7-1.56,44.9-26,48.21,27.91-44.91,26Zm0-55.09,44.9-26,44.9,26-44.9,26Zm0-55.1,44.9-26,44.9,26-44.9,26Zm42.21,27.55-44.91,26-44.89-26L1046,551Zm-92.5-1.56-44.9-26,44.9-26,44.91,26Zm-2.69,1.56-44.9,26-44.91-26,44.91-26Zm-92.49-1.56-44.92-26,44.92-26,44.89,26Zm-2.7,1.56-44.9,26-44.91-26,44.91-26ZM808,575.38l-44.9-26,44.9-26,44.91,26Zm44.91,29.11-48.21,27.9-44.9-26L808,578.5Zm-3.31,57-44.9,26-44.9-26,44.9-26Zm0,55.11-44.9,26-44.9-26,44.9-26Zm2.7,1.56,44.9,26-44.9,26-44.91-26ZM855,716.6l44.9-26,44.9,26-44.9,26Zm92.49,1.56,48.21,27.9-44.9,26-48.2-27.9Zm2.7-1.56,48.2-27.91,48.2,27.91-48.2,27.9Zm99.09,1.56,44.91,26L1046,772l-44.89-26Zm2.7-1.56,44.9-26,44.91,26-44.91,26Zm92.49,1.56,44.91,26-44.91,26-44.9-26Zm-44.9-29.11,44.9-26,44.91,26-44.91,26Zm-3.3-57,44.91-26,48.2,27.89-44.91,26Zm0-55.1,44.91-26,44.89,26-44.89,26Zm0-55.1,44.91-26,44.89,26-44.89,26Zm-2.69-1.55-44.9-26,44.9-26,44.9,26Zm-2.69,1.55-44.91,26-44.89-26,44.89-26Zm-92.5-1.55-44.9-26,44.9-26,44.91,26Zm-2.69,1.55-44.9,26-44.91-26,44.91-26Zm-92.49-1.55-44.92-26,44.92-26,44.89,26Zm-2.7,1.55-44.9,26-44.91-26,44.91-26ZM808,520.29l-44.9-26,44.9-26,44.91,26Zm-2.68,1.55-44.92,26-44.89-26,44.89-26Zm0,55.1-48.22,27.9-44.89-26L760.41,551Zm-3.31,57-44.91,26-44.89-26,44.89-26Zm0,55.11-44.91,26-44.89-26,44.89-26Zm0,55.09-44.91,26-44.89-26,44.89-26Zm0,55.09-44.91,26-44.89-26,44.89-26Zm-42.21-27.54,44.9-26,44.9,26-44.9,26Zm92.5,1.55,48.2,27.91-44.9,26-48.21-27.9Zm2.69-1.55,44.9-26,48.2,27.9-44.89,26Zm95.8,3.47,44.9,26-44.9,26-44.91-26Zm2.69-1.56,44.9-26,44.91,26-44.91,26Zm92.49,1.56,44.91,26-44.91,26-44.89-26Zm2.7-1.56,48.2-27.9,44.91,26-48.21,27.89Zm95.79-.36,44.91,26-48.2,27.9-44.91-26Zm2.7-1.55,44.9-26,44.9,26-44.9,26Zm0-55.09,44.9-26,44.9,26-44.9,26Zm0-55.09,44.9-26,44.9,26-44.9,26Zm-3.3-57,44.9-26,48.2,27.9-44.9,26Zm0-55.1,44.9-26,44.9,26-44.9,26Zm0-55.09,44.9-26,44.9,26-44.9,26Zm0-55.1,44.9-26,44.9,26-44.9,26Zm42.2,27.55-44.89,26-44.91-26,44.91-26Zm-92.49-1.56-44.9-26,44.9-26,44.9,26Zm-2.69,1.56-44.91,26-44.89-26,44.89-26Zm-92.5-1.56-44.9-26,44.9-26,44.91,26Zm-2.69,1.56-44.9,26-44.91-26,44.91-26Zm-92.49-1.56-44.92-26,44.92-26,44.89,26Zm-2.7,1.56-44.9,26-44.91-26,44.91-26ZM808,465.19l-44.9-26,44.9-26,44.91,26Zm-2.68,1.56-44.92,26-44.89-26,44.89-26Zm-92.51-1.56-44.9-26,44.9-26,44.91,26Zm44.91,29.11-44.91,26-44.9-26,44.9-26Zm0,55.09L709.52,577.3l-44.89-26,48.19-27.91Zm-3.31,57-44.9,26-44.89-26,44.89-26Zm0,55.09-44.9,26-44.89-26,44.89-26Zm0,55.11-44.9,26-44.89-26,44.89-26Zm0,55.09-44.9,26-44.89-26,44.89-26Zm0,55.09-44.9,26-44.89-26,44.89-26Zm2.69,1.56,48.22,27.9-44.92,26-48.19-27.9Zm2.7-1.56,44.9-26,48.21,27.9-44.91,26Zm95.8,3.47,44.9,26-44.9,26-44.91-26Zm2.68-1.56,44.92-26,44.89,26-44.89,26Zm92.51,1.56,44.9,26-44.9,26-44.91-26Zm2.69-1.56,44.9-26,44.91,26-44.91,26Zm92.49,1.56,44.91,26-44.91,26-44.89-26Zm2.7-1.56,44.9-26,44.9,26-44.9,26Zm92.5,1.56,44.89,26-44.89,26-44.91-26Zm2.69-1.56,48.2-27.9,44.9,26-48.2,27.91Zm95.79-.35,44.91,26-48.21,27.9-44.9-26Zm-44.9-29.11,44.9-26,44.91,26-44.91,26Zm0-55.09,44.9-26,44.91,26-44.91,26Zm0-55.09,44.9-26,44.91,26-44.91,26Zm0-55.11,44.9-26,44.91,26-44.91,26Zm-3.3-57,44.9-26,48.21,27.91-44.91,26Zm0-55.1,44.9-26,44.9,26-44.9,26Zm0-55.09,44.9-26,44.9,26-44.9,26Zm0-55.1,44.9-26,44.9,26-44.9,26Zm-2.69-1.55-44.9-26,44.9-26,44.9,26Zm-2.7,1.55-44.89,26-44.91-26,44.91-26Zm-92.49-1.55-44.9-26,44.9-26,44.9,26Zm-2.69,1.55-44.91,26-44.89-26,44.89-26Zm-92.5-1.55-44.9-26,44.9-26,44.91,26Zm-2.69,1.55-44.9,26-44.91-26,44.91-26Zm-92.49-1.55-44.92-26,44.92-26,44.89,26Zm-2.7,1.55-44.9,26-44.91-26,44.91-26ZM808,410.1l-44.9-26,44.9-26,44.91,26Zm-2.68,1.55-44.92,26-44.89-26,44.89-26Zm-92.51-1.55-44.9-26,44.9-26,44.91,26Zm-2.68,1.55-44.91,26-44.9-26,44.9-26Zm0,55.1-44.91,26-44.9-26,44.9-26Zm0,55.09-48.21,27.91-44.9-26,48.2-27.92Zm-3.31,57-44.9,26-44.9-26,44.9-26Zm0,55.08-44.9,26-44.9-26,44.9-26Zm0,55.11-44.9,26-44.9-26,44.9-26Zm0,55.09-44.9,26-44.9-26,44.9-26Zm0,55.09-44.9,26-44.9-26,44.9-26Zm0,55.11-44.9,26-44.9-26,44.9-26Zm3.31,57-44.91,26L617,909.43l44.9-26Zm-45.51-29.46,44.89-26,48.21,27.91-44.91,26Zm95.78,3.48,44.92,26-44.92,26-44.89-26Zm2.7-1.56,44.9-26,44.91,26-44.91,26Zm92.5,1.56,44.9,26-44.9,26-44.91-26Zm2.68-1.56,44.92-26,44.89,26-44.89,26Zm92.51,1.56,44.9,26-44.9,26-44.91-26Zm2.69-1.56,44.9-26,44.91,26-44.91,26Zm92.49,1.56,44.91,26-44.91,26-44.89-26Zm2.7-1.56,44.9-26,44.9,26-44.9,26Zm92.5,1.56,44.89,26-44.89,26-44.91-26Zm2.69-1.56,44.9-26,44.9,26-44.9,26Zm92.49,1.56,44.9,26-44.9,26-44.9-26Zm2.7-1.56,48.2-27.91,44.9,26L1284,909.79Zm3.29-57,44.91-26,44.9,26-44.9,26Zm0-55.09,44.91-26,44.9,26-44.9,26Zm0-55.09,44.91-26,44.9,26-44.9,26Zm0-55.09,44.91-26,44.9,26-44.9,26Zm0-55.11,44.91-26,44.9,26-44.9,26Zm-3.29-57,44.89-26,48.21,27.91-44.9,26Zm0-55.09,44.89-26,44.91,26-44.91,26Zm0-55.1,44.89-26,44.91,26-44.91,26Zm0-55.09,44.89-26,44.91,26-44.91,26Zm0-55.1L1284,303l44.91,26L1284,355Zm42.2,27.55-44.9,26-44.9-26,44.9-26ZM1188.77,355l-44.9-26,44.9-26,44.9,26Zm-2.7,1.55-44.89,26-44.91-26,44.91-26ZM1093.58,355l-44.9-26,44.9-26,44.9,26Zm-2.69,1.55-44.91,26-44.89-26,44.89-26ZM998.39,355l-44.9-26,44.9-26,44.91,26Zm-2.69,1.55-44.9,26-44.91-26,44.91-26ZM903.21,355l-44.92-26,44.92-26,44.89,26Zm-2.7,1.55-44.9,26-44.91-26,44.91-26ZM808,355l-44.9-26L808,303l44.91,26Zm-2.68,1.55-44.92,26-44.89-26,44.89-26ZM712.82,355l-44.9-26,44.9-26,44.91,26Zm-2.68,1.55-44.91,26-44.9-26,44.9-26ZM617.64,355l-44.91-26,44.91-26,44.9,26Zm44.9,29.1-44.9,26-44.91-26,44.91-26Zm0,55.09-44.9,26-44.91-26,44.91-26Zm0,55.1-48.2,27.91-44.9-26,48.2-27.89Zm-3.31,57-44.89,26-44.9-26,44.9-26Zm0,55.09-44.89,26-44.9-26,44.9-26Zm0,55.09-44.89,26-44.9-26,44.9-26Zm0,55.11-44.89,26-44.9-26,44.9-26Zm0,55.09-44.89,26-44.9-26,44.9-26Zm0,55.09-44.89,26-44.9-26,44.9-26Zm0,55.1-44.89,26-44.9-26,44.9-26Zm3.31,57-44.9,26L569.44,937l44.9-26Zm2.69,1.56,44.91,26-44.91,26-44.9-26Zm2.69-1.56,44.9-26,44.91,26-44.91,26Zm92.49,1.56,44.92,26-44.92,26-44.89-26Zm2.7-1.56,44.9-26,44.91,26-44.91,26Zm92.5,1.56,44.9,26-44.9,26-44.91-26Zm2.68-1.56,44.92-26,44.89,26-44.89,26Zm92.51,1.56,44.9,26-44.9,26-44.91-26Zm2.69-1.56,44.9-26,44.91,26-44.91,26Zm92.49,1.56,44.91,26-44.91,26-44.89-26Zm2.7-1.56,44.9-26,44.9,26-44.9,26Zm92.5,1.56,44.89,26-44.89,26-44.91-26Zm2.69-1.56,44.9-26,44.9,26-44.9,26Zm92.49,1.56,44.9,26-44.9,26-44.9-26Zm2.7-1.56,44.89-26,44.91,26-44.91,26Zm92.49,1.56,44.9,26-44.9,26-44.9-26Zm-44.9-29.11,48.21-27.9,44.9,26-48.21,27.89Zm3.3-57,44.91-26,44.9,26-44.9,26Zm0-55.11,44.91-26,44.9,26-44.9,26Zm0-55.09,44.91-26,44.9,26-44.9,26Zm0-55.09,44.91-26,44.9,26-44.9,26Zm0-55.11,44.91-26,44.9,26-44.9,26Zm0-55.08,44.91-26,44.9,26-44.9,26Zm-3.3-57,44.9-26,48.21,27.92-44.9,26Zm0-55.09,44.9-26,44.9,26-44.9,26Zm0-55.1,44.9-26,44.9,26-44.9,26Zm0-55.09,44.9-26,44.9,26-44.9,26Zm0-55.1,44.9-26,44.9,26-44.9,26Zm-2.7-1.56-44.89-26,44.89-26,44.91,26Zm-2.69,1.56-44.9,26-44.9-26,44.9-26Zm-92.49-1.56-44.9-26,44.9-26,44.9,26Zm-2.7,1.56-44.89,26-44.91-26,44.91-26Zm-92.49-1.56-44.9-26,44.9-26,44.9,26Zm-2.69,1.56-44.91,26-44.89-26,44.89-26Zm-92.5-1.56-44.9-26,44.9-26,44.91,26Zm-2.69,1.56-44.9,26-44.91-26,44.91-26Zm-92.49-1.56-44.92-26,44.92-26,44.89,26Zm-2.7,1.56-44.9,26-44.91-26,44.91-26ZM808,299.9l-44.9-26,44.9-26,44.91,26Zm-2.68,1.56-44.92,26-44.89-26,44.89-26Zm-92.51-1.56-44.9-26,44.9-26,44.91,26Zm-2.68,1.56-44.91,26-44.9-26,44.9-26Zm-92.5-1.56-44.91-26,44.91-26,44.9,26Zm-2.7,1.56-44.9,26-44.9-26,44.9-26Zm0,55.1-44.9,26-44.9-26,44.9-26Zm0,55.09-44.9,26-44.9-26,44.9-26Zm0,55.1-48.2,27.9-44.9-26,48.2-27.9Zm-3.3,57-44.9,26-44.9-26,44.9-26Zm0,55.09-44.9,26-44.9-26,44.9-26Zm0,55.08-44.9,26-44.9-26,44.9-26Zm0,55.11-44.9,26-44.9-26,44.9-26Zm0,55.09-44.9,26-44.9-26,44.9-26Zm0,55.09-44.9,26-44.9-26,44.9-26Zm0,55.11-44.9,26-44.9-26,44.9-26Zm0,55.09-44.9,26-44.9-26,44.9-26Zm3.3,57-44.9,26-48.2-27.9,44.9-26Zm0,55.11-44.9,26-44.9-26,44.9-26ZM572.73,994l44.91-26,44.9,26-44.9,26Zm92.5,1.55,44.91,26-44.91,26-44.9-26Zm2.69-1.55,44.9-26,44.91,26-44.91,26Zm92.49,1.55,44.92,26-44.92,26-44.89-26Zm2.7-1.55L808,968l44.91,26L808,1020Zm92.5,1.55,44.9,26-44.9,26-44.91-26Zm2.68-1.55,44.92-26,44.89,26-44.89,26Zm92.51,1.55,44.9,26-44.9,26-44.91-26Zm2.69-1.55,44.9-26,44.91,26-44.91,26Zm92.49,1.55,44.91,26-44.91,26-44.89-26Zm2.7-1.55,44.9-26,44.9,26-44.9,26Zm92.5,1.55,44.89,26-44.89,26-44.91-26Zm2.69-1.55,44.9-26,44.9,26-44.9,26Zm92.49,1.55,44.9,26-44.9,26-44.9-26Zm2.7-1.55L1284,968l44.91,26L1284,1020Zm92.49,1.55,44.9,26-44.9,26-44.9-26Zm2.68-1.55,44.91-26,44.91,26-44.91,26Zm0-55.09L1382.45,911l44.9,26-48.21,27.9Zm3.31-57,44.91-26,44.9,26-44.9,26Zm0-55.1,44.91-26,44.9,26-44.9,26Zm0-55.09,44.91-26,44.9,26-44.9,26Zm0-55.09,44.91-26,44.9,26-44.9,26Zm0-55.09,44.91-26,44.9,26-44.9,26Zm0-55.11,44.91-26,44.9,26-44.9,26Zm0-55.09,44.91-26,44.9,26-44.9,26Zm-3.31-57,44.91-26,48.21,27.89-44.9,26Zm0-55.1,44.91-26,44.91,26-44.91,26Zm0-55.09,44.91-26,44.91,26-44.91,26Zm0-55.1,44.91-26,44.91,26-44.91,26Zm0-55.1,44.91-26,44.91,26-44.91,26Zm0-55.08,44.91-26,44.91,26-44.91,26Zm42.22,27.55-44.9,26-44.9-26,44.9-26Zm-92.5-1.57-44.89-26,44.89-26,44.91,26Zm-2.69,1.57-44.9,26-44.9-26,44.9-26Zm-92.49-1.57-44.9-26,44.9-26,44.9,26Zm-2.7,1.57-44.89,26-44.91-26,44.91-26Zm-92.49-1.57-44.9-26,44.9-26,44.9,26Zm-2.69,1.57-44.91,26-44.89-26,44.89-26Zm-92.5-1.57-44.9-26,44.9-26,44.91,26Zm-2.69,1.57-44.9,26-44.91-26,44.91-26Zm-92.49-1.57-44.92-26,44.92-26,44.89,26Zm-2.7,1.57-44.9,26-44.91-26,44.91-26ZM808,244.81l-44.9-26,44.9-26,44.91,26Zm-2.68,1.57-44.92,26-44.89-26,44.89-26Zm-92.51-1.57-44.9-26,44.9-26,44.91,26Zm-2.68,1.57-44.91,26-44.9-26,44.9-26Zm-92.5-1.57-44.91-26,44.91-26,44.9,26Zm-2.7,1.57-44.9,26-44.9-26,44.9-26Zm-92.49-1.57-44.9-26,44.9-26,44.91,26Zm44.91,29.1-44.91,26-44.9-26,44.9-26Zm0,55.1-44.91,26-44.9-26,44.9-26Zm0,55.1-44.91,26-44.9-26,44.9-26Zm0,55.09-48.21,27.9-44.9-26,48.2-27.91Zm-3.31,57-44.9,26-44.9-26,44.9-26Zm0,55.11-44.9,26-44.9-26,44.9-26Zm0,55.09-44.9,26-44.9-26,44.9-26Zm0,55.09-44.9,26-44.9-26,44.9-26Zm0,55.11-44.9,26-44.9-26,44.9-26Zm0,55.09-44.9,26-44.9-26,44.9-26Zm0,55.09-44.9,26-44.9-26,44.9-26Zm0,55.1-44.9,26-44.9-26,44.9-26Zm0,55.09-44.9,26-44.9-26,44.9-26Zm3.31,57-44.91,26-48.2-27.91,44.9-26Zm0,55.1-44.91,26-44.9-26,44.9-26Zm2.68,1.56,44.9,26-44.9,26-44.9-26Zm2.69-1.56,44.91-26,44.9,26-44.9,26Zm92.5,1.56,44.91,26-44.91,26-44.9-26Zm2.69-1.56,44.9-26,44.91,26-44.91,26Zm92.49,1.56,44.92,26-44.92,26-44.89-26Zm2.7-1.56,44.9-26,44.91,26-44.91,26Zm92.5,1.56,44.9,26-44.9,26-44.91-26Zm2.68-1.56,44.92-26,44.89,26-44.89,26Zm92.51,1.56,44.9,26-44.9,26-44.91-26Zm2.69-1.56,44.9-26,44.91,26-44.91,26Zm92.49,1.56,44.91,26-44.91,26-44.89-26Zm2.7-1.56,44.9-26,44.9,26-44.9,26Zm92.5,1.56,44.89,26-44.89,26-44.91-26Zm2.69-1.56,44.9-26,44.9,26-44.9,26Zm92.49,1.56,44.9,26-44.9,26-44.9-26Zm2.7-1.56,44.89-26,44.91,26-44.91,26Zm92.49,1.56,44.9,26-44.9,26-44.9-26Zm2.68-1.56,44.91-26,44.91,26-44.91,26Zm92.5,1.56,44.91,26-44.91,26-44.89-26Zm-44.89-29.1,44.89-26,44.91,26-44.91,26Zm0-55.11,48.2-27.9,44.9,26-48.21,27.9Zm3.3-57,44.9-26,44.9,26-44.9,26Zm0-55.09,44.9-26,44.9,26-44.9,26Zm0-55.11,44.9-26,44.9,26-44.9,26Zm0-55.09,44.9-26,44.9,26-44.9,26Zm0-55.09,44.9-26,44.9,26L1430,715Zm0-55.11,44.9-26,44.9,26L1430,660Zm0-55.08,44.9-26,44.9,26-44.9,26Zm0-55.09,44.9-26,44.9,26-44.9,26Zm-3.3-57,44.89-26,48.21,27.9-44.9,26Zm0-55.1,44.89-26,44.91,26-44.91,26Zm0-55.09,44.89-26,44.92,26-44.92,26Zm0-55.1,44.89-26,44.92,26-44.92,26Zm0-55.08,44.89-26,44.92,26-44.92,26Zm0-55.11,44.89-26,44.92,26-44.92,26Zm-2.7-1.55-44.91-26,44.91-26,44.91,26Zm-2.69,1.55-44.9,26-44.9-26,44.9-26Zm-92.5-1.55-44.89-26,44.89-26,44.91,26Zm-2.69,1.55-44.9,26-44.9-26,44.9-26Zm-92.49-1.55-44.9-26,44.9-26,44.9,26Zm-2.7,1.55-44.89,26-44.91-26,44.91-26Zm-92.49-1.55-44.9-26,44.9-26,44.9,26Zm-2.69,1.55-44.91,26-44.89-26,44.89-26Zm-92.5-1.55-44.9-26,44.9-26,44.91,26Zm-2.69,1.55-44.9,26-44.91-26,44.91-26Zm-92.49-1.55-44.92-26,44.92-26,44.89,26Zm-2.7,1.55-44.9,26-44.91-26,44.91-26ZM808,189.72l-44.9-26,44.9-26,44.91,26Zm-2.68,1.55-44.92,26-44.89-26,44.89-26Zm-92.51-1.55-44.9-26,44.9-26,44.91,26Zm-2.68,1.55-44.91,26-44.9-26,44.9-26Zm-92.5-1.55-44.91-26,44.91-26,44.9,26Zm-2.7,1.55-44.9,26-44.9-26,44.9-26Zm-92.49-1.55-44.9-26,44.9-26,44.91,26Zm-2.68,1.55-44.92,26-44.88-26,44.88-26Zm0,55.11-44.92,26-44.88-26,44.88-26Zm0,55.08-44.92,26-44.88-26,44.88-26Zm0,55.1-44.92,26-44.88-26,44.88-26Zm0,55.09-48.22,27.91-44.9-26,48.2-27.91Zm-3.3,57-44.92,26-44.9-26,44.9-26Zm0,55.11-44.92,26-44.9-26,44.9-26Zm0,55.09-44.92,26-44.9-26,44.9-26Zm0,55.08-44.92,26-44.9-26,44.9-26Zm0,55.11-44.92,26-44.9-26,44.9-26Zm0,55.09-44.92,26-44.9-26,44.9-26Zm0,55.09-44.92,26-44.9-26,44.9-26Zm0,55.11-44.92,26-44.9-26,44.9-26Zm0,55.09-44.92,26-44.9-26,44.9-26Zm0,55.09-44.92,26-44.9-26,44.9-26Zm3.3,57-44.92,26-48.2-27.91,44.9-26Zm0,55.09-44.92,26-44.88-26,44.88-26Zm0,55.09-44.92,26-44.88-26,44.88-26Zm-42.22-27.55,44.9-26,44.91,26-44.91,26Zm92.49,1.56,44.9,26-44.9,26-44.9-26Zm2.69-1.56,44.91-26,44.9,26-44.9,26Zm92.5,1.56,44.91,26-44.91,26-44.9-26Zm2.69-1.56,44.9-26,44.91,26-44.91,26Zm92.49,1.56,44.92,26-44.92,26-44.89-26Zm2.7-1.56,44.9-26,44.91,26-44.91,26Zm92.5,1.56,44.9,26-44.9,26-44.91-26Zm2.68-1.56,44.92-26,44.89,26-44.89,26Zm92.51,1.56,44.9,26-44.9,26-44.91-26Zm2.69-1.56,44.9-26,44.91,26-44.91,26Zm92.49,1.56,44.91,26-44.91,26-44.89-26Zm2.7-1.56,44.9-26,44.9,26-44.9,26Zm92.5,1.56,44.89,26-44.89,26-44.91-26Zm2.69-1.56,44.9-26,44.9,26-44.9,26Zm92.49,1.56,44.9,26-44.9,26-44.9-26Zm2.7-1.56,44.89-26,44.91,26-44.91,26Zm92.49,1.56,44.9,26-44.9,26-44.9-26Zm2.68-1.56,44.91-26,44.91,26-44.91,26Zm92.5,1.56,44.91,26-44.91,26-44.89-26Zm2.69-1.56,44.91-26,44.91,26-44.91,26Zm0-55.09,44.91-26,44.91,26-44.91,26Zm0-55.1,48.22-27.9,44.9,26L1474.33,1020Zm3.32-57,44.9-26,44.9,26-44.9,26Zm0-55.09,44.9-26,44.9,26-44.9,26Zm0-55.1,44.9-26,44.9,26-44.9,26Zm0-55.09,44.9-26,44.9,26-44.9,26Zm0-55.09,44.9-26,44.9,26-44.9,26Zm0-55.09,44.9-26,44.9,26-44.9,26Zm0-55.11,44.9-26,44.9,26-44.9,26Zm0-55.09,44.9-26,44.9,26-44.9,26Zm0-55.11,44.9-26,44.9,26-44.9,26Zm-3.32-57,44.91-26,48.21,27.91-44.9,26Zm0-55.09,44.91-26,44.91,26-44.91,26Zm0-55.1,44.91-26,44.91,26-44.91,26Zm0-55.1,44.91-26,44.91,26-44.91,26Zm0-55.08,44.91-26,44.91,26-44.91,26Zm0-55.11,44.91-26,44.91,26-44.91,26Zm0-55.09,49.87-28.86,44.91,26-49.87,28.84Zm42.23,27.54-44.92,26-44.89-26,44.89-26Zm-92.51-1.56-44.91-26,44.91-26,44.91,26Zm-2.69,1.56-44.9,26-44.9-26,44.9-26Zm-92.5-1.56-44.89-26,44.89-26,44.91,26Zm-2.69,1.56-44.9,26-44.9-26,44.9-26Zm-92.49-1.56-44.9-26,44.9-26,44.9,26Zm-2.7,1.56-44.89,26-44.91-26,44.91-26Zm-92.49-1.56-44.9-26,44.9-26,44.9,26Zm-2.69,1.56-44.91,26-44.89-26,44.89-26Zm-92.5-1.56-44.9-26,44.9-26,44.91,26Zm-2.69,1.56-44.9,26-44.91-26,44.91-26Zm-92.49-1.56-44.92-26,44.92-26,44.89,26Zm-2.7,1.56-44.9,26-44.91-26,44.91-26ZM808,134.61l-44.9-26,44.9-26,44.91,26Zm-2.68,1.56-44.92,26-44.89-26,44.89-26Zm-92.51-1.56-44.9-26,44.9-26,44.91,26Zm-2.68,1.56-44.91,26-44.9-26,44.9-26Zm-92.5-1.56-44.91-26,44.91-26,44.9,26Zm-2.7,1.56-44.9,26-44.9-26,44.9-26Zm-92.49-1.56L472.6,105.77l44.9-26,49.86,28.86Zm-2.68,1.56-44.92,26L425,133.32l44.88-26Zm-97.46-4.42-44.89-26,44.89-26,44.9,26Zm49.86,32-44.91,26-49.84-28.87,44.89-26Zm0,55.11-44.91,26-44.9-26,44.9-26Zm0,55.08-44.91,26-44.9-26,44.9-26Zm0,55.1-44.91,26-44.9-26,44.9-26Zm0,55.1L424,412l-44.9-26,48.2-27.91Zm-3.31,57-44.9,26-44.9-26,44.9-26Zm0,55.08-44.9,26-44.9-26,44.9-26Zm0,55.11-44.9,26-44.9-26,44.9-26Zm0,55.09-44.9,26-44.9-26,44.9-26Zm0,55.09-44.9,26-44.9-26,44.9-26Zm0,55.11-44.9,26-44.9-26,44.9-26Zm0,55.09-44.9,26-44.9-26,44.9-26Zm0,55.09-44.9,26-44.9-26,44.9-26Zm0,55.1-44.9,26-44.9-26,44.9-26Zm0,55.09L424,963l-44.9-26L424,911Zm0,55.1-44.9,26-44.9-26,44.9-26Zm3.31,57-44.91,26-48.2-27.89,44.9-26Zm0,55.09-44.91,26-44.9-26,44.9-26Zm0,55.09-44.91,26-44.9-26,44.9-26Zm2.68,1.56,44.92,26-44.92,26-44.88-26Zm2.7-1.56,44.9-26,44.91,26-44.91,26Zm92.49,1.56,44.9,26-44.9,26-44.9-26Zm2.69-1.56,44.91-26,44.9,26-44.9,26Zm92.5,1.56,44.91,26-44.91,26-44.9-26Zm2.69-1.56,44.9-26,44.91,26-44.91,26Zm92.49,1.56,44.92,26-44.92,26-44.89-26Zm2.7-1.56,44.9-26,44.91,26-44.91,26Zm92.5,1.56,44.9,26-44.9,26-44.91-26Zm2.68-1.56,44.92-26,44.89,26-44.89,26Zm92.51,1.56,44.9,26-44.9,26-44.91-26Zm2.69-1.56,44.9-26,44.91,26-44.91,26Zm92.49,1.56,44.91,26-44.91,26-44.89-26Zm2.7-1.56,44.9-26,44.9,26-44.9,26Zm92.5,1.56,44.89,26-44.89,26-44.91-26Zm2.69-1.56,44.9-26,44.9,26-44.9,26Zm92.49,1.56,44.9,26-44.9,26-44.9-26Zm2.7-1.56,44.89-26,44.91,26-44.91,26Zm92.49,1.56,44.9,26-44.9,26-44.9-26Zm2.68-1.56,44.91-26,44.91,26-44.91,26Zm92.5,1.56,44.91,26-44.91,26-44.89-26Zm2.69-1.56,44.91-26,44.91,26-44.91,26Zm92.5,1.56,44.91,26-44.91,26-44.91-26Zm-44.91-29.1,44.91-26,44.91,26-44.91,26Zm0-55.09,44.91-26,44.91,26-44.91,26Zm0-55.09,48.22-27.91,44.9,26-48.21,27.91Zm3.32-57,44.9-26,44.9,26-44.9,26Zm0-55.09,44.9-26,44.9,26-44.9,26Zm0-55.09,44.9-26,44.9,26-44.9,26Zm0-55.11,44.9-26,44.9,26-44.9,26Zm0-55.09,44.9-26,44.9,26-44.9,26Zm0-55.09,44.9-26,44.9,26-44.9,26Zm0-55.11,44.9-26,44.9,26-44.9,26Zm0-55.08,44.9-26,44.9,26-44.9,26Zm0-55.09,44.9-26,44.9,26-44.9,26Zm0-55.11,44.9-26,44.9,26-44.9,26Zm-3.32-57,44.91-26,48.21,27.91-44.9,26Zm0-55.09,44.91-26,44.91,26-44.91,26Zm0-55.1,44.91-26,44.91,26-44.91,26Zm0-55.08,44.91-26,44.91,26-44.91,26Zm0-55.11,44.91-26,44.91,26-44.91,26Zm0-55.1,49.87-28.85,44.9,26-49.86,28.86Zm5-58,44.91-26,44.9,26-44.9,26Zm-2.68-1.55-44.91-26,44.91-26,44.91,26Zm-2.7,1.55-49.86,28.86-44.89-26,49.86-28.87Zm-97.45,1.32-44.91-26,49.86-28.86,44.91,26Zm-2.69,1.56-44.9,26-44.9-26,44.9-26ZM1284,79.53l-44.89-26,44.89-26,44.91,26Zm-2.69,1.56-44.9,26-44.9-26,44.9-26Zm-92.49-1.56-44.9-26,44.9-26,44.9,26Zm-2.7,1.56-44.89,26-44.91-26,44.91-26Zm-92.49-1.56-44.9-26,44.9-26,44.9,26Zm-2.69,1.56-44.91,26-44.89-26,44.89-26Zm-92.5-1.56-44.9-26,44.9-26,44.91,26Zm-2.69,1.56-44.9,26-44.91-26,44.91-26Zm-92.49-1.56-44.92-26,44.92-26,44.89,26Zm-2.7,1.56-44.9,26-44.91-26,44.91-26ZM808,79.53l-44.9-26,44.9-26,44.91,26Zm-2.68,1.56-44.92,26-44.89-26,44.89-26Zm-92.51-1.56-44.9-26,44.9-26,44.91,26Zm-2.68,1.56-44.91,26-44.9-26,44.9-26Zm-92.5-1.56L567.77,50.66l44.92-26,49.85,28.86Zm-2.7,1.56-44.9,26L520.18,78.21l44.92-26ZM517.5,76.66l-44.9-26,44.9-26,44.9,26Zm-2.69,1.55-44.92,26L425,78.21l44.88-26Zm-92.5-1.55-44.89-26,44.89-26,44.9,26Zm-2.7,1.55-44.89,26-44.9-26,44.9-26Zm0,55.11-44.89,26-44.9-26,44.9-26Zm4.95,58-44.88,26L329.82,188.4l44.9-26Zm0,55.11-44.88,26-44.91-26,44.91-26Zm0,55.08-44.88,26-44.91-26,44.91-26Zm0,55.1-48.19,27.91-44.91-26,48.22-27.91Zm-3.3,57-44.89,26-44.91-26,44.91-26Zm0,55.09-44.89,26-44.91-26,44.91-26Zm0,55.11-44.89,26-44.91-26,44.91-26Zm0,55.09-44.91,26-44.91-26,44.91-26Zm0,55.08-44.91,26-44.91-26,44.91-26Zm0,55.11-44.91,26-44.91-26,44.91-26Zm0,55.09-44.91,26-44.91-26,44.91-26Zm0,55.09-44.91,26-44.91-26,44.91-26Zm0,55.11-44.91,26-44.91-26,44.91-26Zm0,55.09-44.91,26-44.91-26,44.91-26Zm0,55.09-44.91,26-44.91-26,44.91-26Zm0,55.1-44.91,26-44.91-26,44.91-26Zm3.28,57-44.88,26-48.22-27.9,44.91-26Zm0,55.09-44.88,26-44.91-26,44.91-26Zm0,55.11-44.88,26-44.91-26,44.91-26Zm0,55.08-49.84,28.85-44.9-26,49.86-28.84Zm-42.2-27.55,44.9-26,44.91,26-44.91,26Zm92.49,1.57,44.92,26-44.92,26-44.88-26Zm2.7-1.57,44.9-26,44.91,26-44.91,26Zm92.49,1.57,44.9,26-44.9,26-44.9-26Zm2.69-1.57,44.91-26,44.9,26-44.9,26Zm92.5,1.57,44.91,26-44.91,26-44.9-26Zm2.69-1.57,44.9-26,44.91,26-44.91,26Zm92.49,1.57,44.92,26-44.92,26-44.89-26Zm2.7-1.57,44.9-26,44.91,26-44.91,26Zm92.5,1.57,44.9,26-44.9,26-44.91-26Zm2.68-1.57,44.92-26,44.89,26-44.89,26Zm92.51,1.57,44.9,26-44.9,26-44.91-26Zm2.69-1.57,44.9-26,44.91,26-44.91,26Zm92.49,1.57,44.91,26-44.91,26-44.89-26Zm2.7-1.57,44.9-26,44.9,26-44.9,26Zm92.5,1.57,44.89,26-44.89,26-44.91-26Zm2.69-1.57,44.9-26,44.9,26-44.9,26Zm92.49,1.57,44.9,26-44.9,26-44.9-26Zm2.7-1.57,44.89-26,44.91,26-44.91,26Zm92.49,1.57,44.9,26-44.9,26-44.9-26Zm2.68-1.57,44.91-26,44.91,26-44.91,26Zm92.5,1.57,44.91,26-44.91,26-44.89-26Zm2.69-1.57,44.91-26,44.91,26-44.91,26Zm92.5,1.57,44.91,26-44.91,26-44.91-26Zm2.69-1.57,44.92-26,44.88,26-44.88,26Zm0-55.1,44.92-26,44.88,26-44.88,26Zm0-55.09,44.92-26,44.88,26-44.88,26Zm0-55.09,48.22-27.91,44.89,26-48.19,27.89Zm3.3-57,44.92-26,44.89,26-44.89,26Zm0-55.1,44.92-26,44.89,26-44.89,26Zm0-55.09,44.92-26,44.89,26-44.89,26Zm0-55.1,44.92-26,44.89,26-44.89,26Zm0-55.09,44.92-26,44.89,26-44.89,26Zm0-55.09,44.92-26,44.89,26-44.89,26Zm0-55.09,44.92-26,44.89,26-44.89,26Zm0-55.11,44.92-26,44.89,26-44.89,26Zm0-55.09,44.92-26,44.89,26-44.89,26Zm0-55.11,44.92-26,44.89,26-44.89,26Zm0-55.08,44.92-26,44.89,26-44.89,26Zm-3.3-57,44.92-26L1617.72,386l-44.89,26Zm0-55.1,44.92-26,44.88,26-44.88,26Zm0-55.1,44.92-26,44.88,26-44.88,26Zm0-55.08,44.92-26,44.88,26-44.88,26Zm0-55.11,49.86-28.86,44.9,26-49.84,28.87Zm5-57.95,44.9-26,44.9,26-44.9,26Zm0-55.11,44.9-26,44.9,26-44.9,26Zm0-55.08,44.9-26,44.9,26-44.9,26Zm42.21,27.53-44.9,26-44.91-26,44.91-26Zm-92.49-1.55-44.91-26,44.91-26,44.91,26Zm-2.7,1.55-44.89,26-44.92-26,44.92-26Zm-92.5-1.55-44.9-26,44.9-26,44.91,26Zm-2.67,1.55L1331.55,52l-44.9-26,49.86-28.85ZM1284,24.43l-44.89-26,49.86-28.84,44.89,26ZM1281.26,26l-44.9,26-44.9-26,44.9-26Zm-92.49-1.56-44.9-26,44.9-26,44.9,26Zm-2.7,1.56-44.89,26-44.91-26,44.91-26Zm-92.49-1.56-44.9-26,44.9-26,44.9,26ZM1090.89,26,1046,52l-44.89-26L1046,0Zm-92.5-1.56-44.9-26,44.9-26,44.91,26ZM995.7,26,950.8,52,905.89,26,950.8,0Zm-92.49-1.56-44.92-26,44.92-26,44.89,26ZM900.51,26l-44.9,26L810.7,26,855.61,0ZM808,24.43l-44.9-26,44.9-26,44.91,26ZM805.33,26,760.41,52,715.52,26,760.41,0Zm-92.51-1.56L663-4.42l44.88-26L757.73-1.57ZM710.14,26,665.23,52,615.37,23.11l44.91-26Zm-97.45-4.43-44.92-26,44.92-26,44.89,26ZM610,23.11l-44.89,26-44.92-26,44.92-26ZM517.5,21.56l-44.9-26,44.9-26,44.9,26Zm-2.69,1.55-44.92,26L425,23.11l44.88-26Zm-92.5-1.55-44.89-26,44.89-26,44.9,26Zm-2.7,1.55-44.89,26-44.9-26,44.9-26Zm-92.48-1.55-44.91-26,44.91-26L372-4.42ZM372,50.66l-44.89,26-44.91-26,44.91-26Zm0,55.11-44.89,26-44.91-26,44.91-26Zm0,55.08-44.89,26-44.91-26,44.91-26Zm5,58-44.89,26L282.22,216l44.91-26Zm0,55.08-44.89,26-44.92-26,44.92-26Zm0,55.1-48.2,27.91-44.92-26L332.09,303Zm-3.31,57-44.89,26-44.92-26,44.92-26Zm0,55.1-44.89,26-44.92-26,44.92-26Zm0,55.08-44.89,26-44.92-26,44.92-26Zm0,55.11-44.89,26-44.92-26,44.92-26Zm0,55.09-44.89,26-44.92-26,44.92-26Zm0,55.09-44.89,26-44.92-26,44.92-26Zm0,55.11-44.89,26-44.92-26,44.92-26Zm0,55.09-44.89,26-44.92-26,44.92-26Zm0,55.09-44.89,26-44.92-26,44.92-26Zm0,55.1-44.89,26-44.92-26,44.92-26Zm0,55.09-44.89,26-44.92-26,44.92-26Zm0,55.1-44.89,26-44.92-26,44.92-26Zm0,55.1-44.89,26-44.92-26,44.92-26Zm3.31,57-44.89,26-48.23-27.9,44.92-26Zm0,55.09-44.89,26-44.92-26,44.92-26Zm0,55.1-49.85,28.86-44.91-26,49.87-28.86Zm-5,58-44.89,26-44.91-26,44.91-26Zm2.7,1.56,44.89,26-44.89,26-44.9-26Zm2.7-1.56,49.84-28.85,44.91,26-49.86,28.86Zm97.43-1.3,44.92,26-49.88,28.86-44.88-26Zm2.7-1.56,44.9-26,44.91,26-44.91,26ZM570,1271l44.9,26L570,1323l-44.9-26Zm2.69-1.56,44.91-26,44.9,26-44.9,26Zm92.5,1.56,44.91,26-44.91,26-44.9-26Zm2.69-1.56,44.9-26,44.91,26-44.91,26Zm92.49,1.56,44.92,26-44.92,26-44.89-26Zm2.7-1.56,44.9-26,44.91,26-44.91,26Zm92.5,1.56,44.9,26-44.9,26-44.91-26Zm2.68-1.56,44.92-26,44.89,26-44.89,26ZM950.8,1271l44.9,26-44.9,26-44.91-26Zm2.69-1.56,44.9-26,44.91,26-44.91,26ZM1046,1271l44.91,26L1046,1323l-44.89-26Zm2.7-1.56,44.9-26,44.9,26-44.9,26Zm92.5,1.56,44.89,26-44.89,26-44.91-26Zm2.69-1.56,44.9-26,44.9,26-44.9,26Zm92.49,1.56,44.9,26-44.9,26-44.9-26Zm2.7-1.56,44.89-26,44.91,26-44.91,26Zm92.49,1.56,44.9,26-44.9,26-44.9-26Zm2.68-1.56,44.91-26,44.91,26-44.91,26Zm92.5,1.56,44.91,26-44.91,26-44.89-26Zm2.69-1.56,44.91-26,44.91,26-44.91,26Zm92.5,1.56,49.86,28.86-44.9,26L1477,1297Zm2.69-1.56,44.92-26,49.84,28.85-44.9,26Zm97.46,4.42,44.9,26-44.9,26-44.91-26Zm-49.87-32,44.91-26,49.86,28.84-44.9,26Zm0-55.08,44.91-26,44.91,26-44.91,26Zm0-55.11,44.91-26,44.91,26-44.91,26Zm0-55.09,48.22-27.91,44.9,26-48.21,27.9Zm3.32-57,44.9-26,44.9,26-44.9,26Zm0-55.1,44.9-26,44.9,26-44.9,26Zm0-55.09,44.9-26,44.9,26-44.9,26Zm0-55.09,44.9-26,44.9,26-44.9,26Zm0-55.11,44.9-26,44.9,26-44.9,26Zm0-55.09,44.9-26,44.9,26-44.9,26Zm0-55.09,44.9-26,44.9,26-44.9,26Zm0-55.11,44.9-26,44.9,26-44.9,26Zm0-55.08,44.9-26,44.9,26-44.9,26Zm0-55.09,44.9-26,44.9,26-44.9,26Zm0-55.11,44.9-26,44.9,26-44.9,26Zm0-55.09,44.9-26,44.9,26-44.9,26Zm-3.32-57,44.91-26,48.21,27.91-44.9,26Zm0-55.1,44.91-26,44.91,26-44.91,26Zm0-55.08,44.91-26,44.91,26-44.91,26Zm0-55.11,49.87-28.86,44.9,26-49.86,28.87Zm5-58,44.91-26,44.9,26-44.9,26Zm0-55.11,44.91-26,44.9,26-44.9,26Zm0-55.1,44.91-26,44.9,26-44.9,26Zm-2.69-56.64-44.9-26,44.9-26,44.9,26ZM1571.78-32l-44.9,26L1482-32l44.91-26Zm-92.49-1.56-44.91-26,44.91-26,44.91,26Zm-2.7,1.56L1431.7-6l-44.92-26,44.92-26Zm-92.5-1.56-44.9-26,44.9-26,44.91,26ZM1381.42-32,1336.51-6,1291.6-32l44.91-26Zm-92.5-1.56-44.9-26,44.9-26,44.89,26Zm-2.7,1.56L1236.36-3.11l-44.9-26L1241.32-58Zm-97.45,1.3-44.9-26,49.86-28.87,44.89,26Zm-2.7,1.56-44.89,26-44.91-26,44.91-26Zm-92.49-1.56-44.9-26,44.9-26,44.9,26Zm-2.69,1.56L1046-3.11l-44.89-26,44.89-26Zm-92.5-1.56-44.9-26,44.9-26,44.91,26Zm-2.69,1.56-44.9,26-44.91-26,44.91-26Zm-92.49-1.56-44.92-26,44.92-26,44.89,26Zm-2.7,1.56-44.9,26-44.91-26,44.91-26ZM808-30.67,758.15-59.52l44.9-26,49.87,28.87Zm-2.68,1.56-44.92,26L710.56-32l44.9-26Zm-97.47-4.42L663-59.52l44.88-26,44.93,26ZM705.19-32,660.28-6,615.37-32l44.91-26Zm-92.5-1.56-44.92-26,44.92-26,44.89,26ZM610-32,565.1-6,520.18-32,565.1-58ZM517.5-33.53l-44.9-26,44.9-26,44.9,26ZM514.81-32,469.89-6,425-32l44.88-26Zm-92.5-1.56-44.89-26,44.89-26,44.9,26ZM419.61-32,374.72-6l-44.9-26,44.9-26Zm-92.48-1.56-44.91-26,44.91-26,44.89,26ZM324.43-32,279.53-6,234.62-32l44.91-26Zm0,55.08-44.9,26-44.91-26,44.91-26Zm0,55.1-44.9,26-44.91-26,44.91-26Zm0,55.11-44.9,26-44.91-26,44.91-26Zm0,55.08-44.9,26-44.91-26,44.91-26Zm5,58-44.9,26L234.62,243.5l44.91-26Zm0,55.08-48.22,27.9-44.9-26,48.22-27.91Zm-3.31,57-44.91,26-44.9-26,44.9-26Zm0,55.09-44.91,26-44.9-26,44.9-26Zm0,55.09-44.91,26-44.9-26,44.9-26Zm0,55.11-44.91,26-44.9-26,44.9-26Zm0,55.09-44.91,26-44.9-26,44.9-26Zm0,55.08-44.91,26-44.9-26,44.9-26Zm0,55.11-44.91,26-44.9-26,44.9-26Zm0,55.09-44.91,26-44.9-26,44.9-26Zm0,55.09-44.91,26-44.9-26,44.9-26Zm0,55.11-44.91,26-44.9-26,44.9-26Zm0,55.09-44.91,26-44.9-26,44.9-26Zm0,55.09-44.91,26-44.9-26,44.9-26Zm0,55.1-44.91,26-44.9-26,44.9-26Zm0,55.09-44.91,26-44.9-26,44.9-26Zm3.31,57-44.9,26-48.22-27.9,44.9-26Zm0,55.11-49.86,28.84-44.91-26,49.87-28.86Zm-5,57.94-44.9,26-44.91-26,44.91-26Zm0,55.11-44.9,26-44.91-26,44.91-26Zm0,55.09-44.9,26-44.91-26,44.91-26Zm-42.21-27.55,44.91-26,44.89,26-44.89,26Zm92.5,1.57,44.89,26-44.89,26-44.9-26Zm2.7-1.57,44.89-26,44.9,26-44.9,26Zm92.47,1.57,44.92,26-44.92,26L425,1355Zm2.71-1.57,49.85-28.86,44.91,26-49.86,28.86Zm97.44-1.31,44.9,26L565.1,1381l-44.92-26Zm2.69-1.56,44.91-26,44.9,26-44.9,26Zm92.5,1.56,44.91,26-44.91,26-44.9-26Zm2.69-1.56,44.9-26,44.91,26-44.91,26Zm92.49,1.56,44.92,26-44.92,26-44.89-26Zm2.7-1.56,44.9-26,44.91,26-44.91,26Zm92.5,1.56,44.9,26-44.9,26-44.91-26Zm2.68-1.56,44.92-26,44.89,26-44.89,26Zm92.51,1.56,44.9,26-44.9,26-44.91-26Zm2.69-1.56,44.9-26,44.91,26-44.91,26Zm92.49,1.56,44.91,26-44.91,26-44.89-26Zm2.7-1.56,44.9-26,44.9,26-44.9,26Zm92.5,1.56,44.89,26-44.89,26-44.91-26Zm2.69-1.56,44.9-26,44.9,26-44.9,26Zm92.49,1.56,44.9,26-44.9,26-44.9-26Zm2.7-1.56,44.89-26,44.91,26-44.91,26Zm92.49,1.56,44.9,26-44.9,26-44.9-26Zm2.68-1.56,44.91-26,44.91,26-44.91,26Zm92.5,1.56,49.86,28.86-44.9,26-49.85-28.85Zm2.69-1.56,44.91-26,49.87,28.86-44.91,26Zm97.46,4.44,44.9,26-44.9,26L1482,1355Zm2.69-1.57,44.9-26,44.9,26-44.9,26Zm92.5,1.57,44.9,26-44.9,26-44.91-26Zm2.69-1.57,44.9-26,44.9,26-44.9,26Zm0-55.1,44.9-26,44.9,26-44.9,26Zm-5-58,44.9-26,49.86,28.86-44.9,26Zm0-55.1,44.9-26,44.9,26-44.9,26Zm0-55.09,48.2-27.9,44.91,26-48.21,27.9Zm3.3-57,44.9-26,44.91,26-44.91,26Zm0-55.1,44.9-26,44.91,26-44.91,26Zm0-55.1,44.9-26,44.91,26L1668,963Zm0-55.09,44.9-26,44.91,26-44.91,26Zm0-55.1,44.9-26,44.91,26-44.91,26Zm0-55.09,44.9-26,44.91,26-44.91,26Zm0-55.09,44.9-26,44.91,26-44.91,26Zm0-55.09,44.9-26,44.91,26-44.91,26Zm0-55.11,44.9-26,44.91,26-44.91,26Zm0-55.09,44.9-26,44.91,26-44.91,26Zm0-55.11,44.9-26,44.91,26-44.91,26Zm0-55.08,44.9-26,44.91,26-44.91,26Zm0-55.1,44.9-26,44.91,26L1668,412Zm-3.3-57,44.9-26,48.21,27.9-44.91,26Zm0-55.1,44.9-26,44.9,26-44.9,26Zm0-55.08L1669.66,190l44.9,26-49.86,28.86Zm5-58,44.9-26,44.9,26-44.9,26Zm0-55.08,44.9-26,44.9,26-44.9,26Zm0-55.11,44.9-26,44.9,26-44.9,26Zm0-55.08,44.9-26,44.9,26-44.9,26ZM1672.36-32l44.89-26,44.91,26L1717.25-6Zm0-55.11,44.89-26,44.91,26-44.91,26Zm-2.7-1.56-44.9-26,44.9-26,44.9,26ZM1667-87.08l-44.9,26-44.91-26,44.91-26Zm-92.5-1.56-44.9-26,44.9-26,44.9,26Zm-2.69,1.56-44.9,26-44.91-26,44.91-26Zm-92.49-1.56-44.91-26,44.91-26,44.91,26Zm-2.7,1.56-44.89,26-44.92-26,44.92-26Zm-92.5-1.56-44.9-26,44.9-26,44.91,26Zm-2.67,1.56-44.91,26-44.91-26,44.91-26Zm-92.5-1.56-44.9-26,44.9-26,44.89,26Zm-2.7,1.56-44.9,26-44.91-26,44.91-26Zm-92.49-1.56-44.9-26,44.9-26,44.89,26Zm-2.7,1.56-49.85,28.87-44.91-26,49.87-28.86Zm-97.45,1.32-44.9-26,49.86-28.86,44.9,26Zm-2.69,1.56-44.91,26-44.89-26,44.89-26Zm-92.5-1.56-44.9-26,44.9-26,44.91,26ZM995.7-84.2l-44.9,26-44.91-26,44.91-26Zm-92.49-1.56-49.87-28.87,44.91-26,49.85,28.86Zm-2.7,1.56-44.9,26L805.74-87.08l44.92-26Zm-97.46-4.44-44.9-26,44.9-26,44.91,26Zm-2.67,1.56-44.92,26-44.9-26,44.9-26Zm-92.52-1.56-44.88-26,44.88-26,44.93,26Zm-2.67,1.56-44.91,26-44.91-26,44.91-26Zm-92.5-1.56-44.92-26,44.92-26,44.89,26ZM610-87.08l-44.89,26-44.92-26,44.92-26ZM517.5-88.64l-44.9-26,44.9-26,44.9,26Zm-2.69,1.56-44.92,26L425-87.08l44.88-26Zm-92.5-1.56-44.89-26,44.89-26,44.9,26Zm-2.7,1.56-44.89,26-44.9-26,44.9-26Zm-92.48-1.56-44.91-26,44.91-26,44.89,26Zm-2.7,1.56-44.9,26-44.91-26,44.91-26Zm-92.5-1.56-44.9-26,44.9-26,44.91,26Zm44.91,29.12-44.91,26-44.9-26,44.9-26Zm0,55.1-44.91,26L187-4.42l44.9-26Zm0,55.08-44.91,26-44.9-26,44.9-26Zm0,55.11-44.91,26-44.9-26,44.9-26Zm0,55.08-44.91,26-44.9-26,44.9-26Zm0,55.1-44.91,26L187,216l44.9-26Zm5,58-48.21,27.91L183.73,273l48.2-27.89Zm-3.31,57-44.9,26-44.91-26,44.91-26Zm0,55.1-44.9,26-44.91-26,44.91-26Zm0,55.1-44.9,26-44.91-26,44.91-26Zm0,55.08-44.9,26-44.91-26,44.91-26Zm0,55.11-44.9,26-44.91-26,44.91-26Zm0,55.09-44.9,26-44.91-26,44.91-26Zm0,55.09-44.9,26-44.91-26,44.91-26Zm0,55.11-44.9,26-44.91-26,44.91-26Zm0,55.09-44.9,26-44.91-26,44.91-26Zm0,55.09-44.9,26-44.91-26,44.91-26Zm0,55.1-44.9,26-44.91-26,44.91-26Zm0,55.09-44.9,26-44.91-26,44.91-26Zm0,55.1-44.9,26-44.91-26,44.91-26Zm0,55.1-44.9,26-44.91-26,44.91-26Zm0,55.09-44.9,26-44.91-26,44.91-26Zm3.31,57-49.87,28.86-48.2-27.9,49.86-28.85Zm-5,58-44.91,26-44.9-26,44.9-26Zm0,55.09-44.91,26-44.9-26,44.9-26Zm0,55.1-44.91,26-44.9-26,44.9-26Zm0,55.1-44.91,26-44.9-26,44.9-26Zm2.69,1.55,44.9,26-44.9,26-44.91-26Zm2.69-1.55,44.91-26,44.89,26-44.89,26Zm92.5,1.55,44.89,26-44.89,26-44.9-26Zm2.7-1.55,44.89-26,44.9,26-44.9,26Zm92.47,1.55,44.92,26-44.92,26-44.88-26Zm2.71-1.55,44.9-26,44.9,26-44.9,26Zm92.5,1.55,44.89,26-44.89,26-44.92-26Zm2.67-1.55,49.86-28.86,44.91,26-49.85,28.85Zm97.46-1.31,44.91,26-49.86,28.85-44.91-26Zm2.69-1.56,44.9-26,44.91,26-44.91,26Zm92.49,1.56,44.92,26-44.92,26-44.89-26Zm2.7-1.56,44.9-26,44.91,26-44.91,26Zm92.5,1.56,44.9,26-44.9,26-44.91-26Zm2.68-1.56,44.92-26,44.89,26-44.89,26Zm92.51,1.56,44.9,26-44.9,26-44.91-26Zm2.69-1.56,44.9-26,44.91,26-44.91,26Zm92.49,1.56,44.91,26-44.91,26-44.89-26Zm2.7-1.56,44.9-26,44.9,26-44.9,26Zm92.5,1.56,44.89,26-44.89,26-44.91-26Zm2.69-1.56,44.9-26,44.9,26-44.9,26Zm92.49,1.56,44.9,26-44.9,26-44.9-26Zm2.7-1.56,44.89-26,44.91,26-44.91,26Zm92.49,1.56,49.87,28.85-44.91,26-49.86-28.85Zm2.68-1.56,44.91-26,49.86,28.86-44.91,26Zm97.46,4.42,44.9,26-44.9,26-44.91-26Zm2.69-1.55,44.91-26,44.91,26-44.91,26Zm92.5,1.55,44.9,26-44.9,26-44.91-26Zm2.69-1.55,44.9-26,44.9,26-44.9,26Zm92.5,1.55,44.9,26-44.9,26-44.91-26Zm2.69-1.55,44.9-26,44.9,26-44.9,26Zm92.49,1.55,44.91,26-44.91,26-44.89-26Zm-44.89-29.1,44.89-26,44.91,26-44.91,26Zm0-55.09,44.89-26,44.91,26-44.91,26Zm0-55.11,44.89-26,44.91,26-44.91,26Zm-5-57.94,44.9-26,49.86,28.86-44.91,26Zm0-55.11,48.19-27.9,44.91,26-48.2,27.9Zm3.29-57,44.9-26,44.91,26-44.91,26Zm0-55.09,44.9-26,44.91,26-44.91,26Zm0-55.1,44.9-26,44.91,26-44.91,26Zm0-55.09,44.9-26,44.91,26-44.91,26Zm0-55.09,44.9-26,44.91,26-44.91,26Zm0-55.11,44.9-26,44.91,26-44.91,26Zm0-55.09,44.9-26,44.91,26-44.91,26Zm0-55.09,44.9-26,44.91,26-44.91,26Zm0-55.11,44.9-26,44.91,26-44.91,26Zm0-55.08,44.9-26,44.91,26-44.91,26Zm0-55.09,44.9-26,44.91,26-44.91,26Zm0-55.11,44.9-26,44.91,26-44.91,26Zm0-55.09,44.9-26,44.91,26-44.91,26Zm0-55.09,44.9-26,44.91,26-44.91,26Zm-3.29-57,44.9-26,48.2,27.91-44.91,26Zm0-55.08,49.85-28.87,44.91,26-49.86,28.85Zm5-58,44.89-26,44.91,26-44.91,26Zm0-55.08,44.89-26,44.91,26-44.91,26Zm0-55.11,44.89-26,44.91,26-44.91,26Zm0-55.1,44.89-26,44.91,26-44.91,26ZM1720-4.42l44.9-26,44.9,26-44.9,26Zm0-55.1,44.9-26,44.9,26-44.9,26Zm0-55.11,44.9-26,44.9,26-44.9,26Zm0-55.08,44.9-26,44.9,26-44.9,26Zm42.21,27.55-44.91,26-44.89-26,44.89-26Zm-92.5-1.56-44.9-26,44.9-26,44.9,26Zm-2.69,1.56-44.9,26-44.91-26,44.91-26Zm-92.5-1.56-44.9-26,44.9-26,44.9,26Zm-2.69,1.56-44.9,26-44.91-26,44.91-26Zm-92.49-1.56-44.91-26,44.91-26,44.91,26Zm-2.7,1.56-44.89,26-44.92-26,44.92-26Zm-92.5-1.56-44.9-26,44.9-26,44.91,26Zm-2.67,1.56-44.91,26-44.91-26,44.91-26Zm-92.5-1.56-44.9-26,44.9-26,44.89,26Zm-2.7,1.56-44.9,26-44.91-26,44.91-26Zm-92.49-1.56-44.9-26,44.9-26,44.89,26Zm-2.7,1.56-44.89,26-44.92-26,44.92-26Zm-92.49-1.56-44.9-26,44.9-26,44.9,26Zm-2.69,1.56L1046-113.31l-44.89-26,49.84-28.86Zm-97.46,1.31-49.86-28.86,49.86-28.87,49.86,28.87Zm-2.69,1.56-44.9,26-49.87-28.85,44.91-26Zm-97.45-4.43-44.91-26,44.91-26,44.9,26Zm-2.7,1.56-44.89,26-44.92-26,44.92-26Zm-92.5-1.56-44.9-26,44.9-26,44.91,26Zm-2.67,1.56-44.92,26-44.9-26,44.9-26Zm-92.52-1.56-44.88-26,44.88-26,44.93,26Zm-2.67,1.56-44.91,26-44.91-26,44.91-26Zm-92.5-1.56-44.92-26,44.92-26,44.89,26Zm-2.7,1.56-44.89,26-44.92-26,44.92-26Zm-92.49-1.56-44.9-26,44.9-26,44.9,26Zm-2.69,1.56-44.92,26-44.88-26,44.88-26Zm-92.5-1.56-44.89-26,44.89-26,44.9,26Zm-2.7,1.56-44.89,26-44.9-26,44.9-26Zm-92.48-1.56-44.91-26,44.91-26,44.89,26Zm-2.7,1.56-44.9,26-44.91-26,44.91-26Zm-92.5-1.56-44.9-26,44.9-26,44.91,26Zm-2.68,1.56-44.91,26-44.9-26,44.9-26Zm0,55.08-44.91,26-44.9-26,44.9-26Zm0,55.11L184.34-6l-44.9-26,44.9-26Zm0,55.08-44.91,26-44.9-26,44.9-26Zm0,55.1-44.91,26-44.9-26,44.9-26Zm0,55.11-44.91,26-44.9-26,44.9-26Zm0,55.08-44.91,26-44.9-26,44.9-26Zm0,55.1L181,271.41l-44.89-26,48.2-27.9Zm1.65,59.88-44.92,26-49.84-28.85,44.89-26Zm0,55.1-44.92,26-44.88-26,44.88-26Zm0,55.09-44.92,26-44.88-26,44.88-26Zm0,55.09-44.92,26-44.88-26,44.88-26Zm0,55.11-44.92,26-44.88-26,44.88-26Zm0,55.09-44.92,26-44.88-26,44.88-26Zm0,55.08L186,660l-44.88-26L186,608Zm0,55.11L186,715l-44.88-26,44.88-26Zm0,55.09-44.92,26-44.88-26,44.88-26Zm0,55.09-44.92,26-44.88-26,44.88-26Zm0,55.11-44.92,26-44.88-26,44.88-26Zm0,55.09-44.92,26-44.88-26,44.88-26Zm0,55.09-44.92,26-44.88-26,44.88-26Zm0,55.1-44.92,26-44.88-26,44.88-26Zm0,55.09-44.92,26-44.88-26,44.88-26Zm0,55.1L181,1158.67l-44.89-26L186,1103.82Zm-1.65,59.87-44.91,26-48.2-27.9,44.89-26Zm0,55.09-44.91,26-44.9-26,44.9-26Zm0,55.11-44.91,26-44.9-26,44.9-26Zm0,55.09-44.91,26-44.9-26,44.9-26Zm0,55.09-44.91,26-44.9-26,44.9-26Zm0,55.1-44.91,26-44.9-26,44.9-26ZM187,1437.61l44.9-26,44.91,26-44.91,26Zm92.5,1.56,44.9,26-44.9,26-44.91-26Zm2.69-1.56,44.91-26,44.89,26-44.89,26Zm92.5,1.56,44.89,26-44.89,26-44.9-26Zm2.7-1.56,44.89-26,44.9,26-44.9,26Zm92.47,1.56,44.92,26-44.92,26-44.88-26Zm2.71-1.56,44.9-26,44.9,26-44.9,26Zm92.5,1.56,44.89,26-44.89,26-44.92-26Zm2.67-1.56,44.92-26,44.89,26-44.89,26Zm92.51,1.56,44.91,26-44.91,26-44.91-26Zm2.7-1.56,49.84-28.85,44.91,26-49.87,28.85Zm97.43-1.31,44.92,26-49.87,28.86-44.9-26Zm2.7-1.55,44.9-26,44.91,26-44.91,26Zm92.5,1.55,44.9,26-44.9,26-44.91-26Zm2.68-1.55,44.92-26,44.89,26-44.89,26Zm92.51,1.55,44.9,26-44.9,26-44.91-26Zm2.69-1.55,44.9-26,44.91,26-44.91,26Zm92.49,1.55,44.91,26-44.91,26-44.89-26Zm2.7-1.55,44.9-26,44.9,26-44.9,26Zm92.5,1.55,44.89,26-44.89,26-44.91-26Zm2.69-1.55,44.9-26,44.9,26-44.9,26Zm92.49,1.55,49.86,28.86-44.9,26-49.86-28.86Zm2.7-1.55,44.89-26,49.86,28.85-44.89,26Zm97.45,4.42,44.91,26-44.91,26-44.91-26Zm2.68-1.56,44.9-26,44.91,26-44.91,26Zm92.5,1.56,44.9,26-44.9,26-44.91-26Zm2.69-1.56,44.91-26,44.91,26-44.91,26Zm92.5,1.56,44.9,26-44.9,26-44.91-26Zm2.69-1.56,44.9-26,44.9,26-44.9,26Zm92.5,1.56,44.9,26-44.9,26-44.91-26Zm2.69-1.56,44.9-26,44.9,26-44.9,26Zm92.49,1.56,44.91,26-44.91,26-44.89-26Zm2.7-1.56,44.9-26,44.9,26-44.9,26Zm0-55.09,44.9-26,44.9,26-44.9,26Zm0-55.1,44.9-26,44.9,26-44.9,26Zm0-55.1,44.9-26,44.9,26-44.9,26Zm0-55.09,44.9-26,44.9,26-44.9,26Zm-5-58,48.21-27.89,49.86,28.85-48.21,27.9Zm3.3-57,44.91-26,44.9,26-44.9,26Zm0-55.09,44.91-26,44.9,26-44.9,26Zm0-55.1,44.91-26,44.9,26-44.9,26Zm0-55.1,44.91-26,44.9,26-44.9,26Zm0-55.09,44.91-26,44.9,26-44.9,26Zm0-55.1,44.91-26,44.9,26-44.9,26Zm0-55.09,44.91-26,44.9,26-44.9,26Zm0-55.09,44.91-26,44.9,26-44.9,26Zm0-55.09,44.91-26,44.9,26-44.9,26Zm0-55.11,44.91-26,44.9,26-44.9,26Zm0-55.09,44.91-26,44.9,26-44.9,26Zm0-55.11,44.91-26,44.9,26-44.9,26Zm0-55.08,44.91-26,44.9,26-44.9,26Zm0-55.1,44.91-26,44.9,26-44.9,26Zm0-55.1,44.91-26,44.9,26-44.9,26Zm-3.3-57,49.86-28.85L1813.06,273l-49.86,28.87Zm5-58,44.9-26,44.9,26-44.9,26Zm0-55.1,44.9-26,44.9,26-44.9,26Zm0-55.08,44.9-26,44.9,26-44.9,26Zm0-55.11,44.9-26,44.9,26-44.9,26Zm47.59-27.55,44.9-26,44.9,26-44.9,26Zm0-55.08,44.9-26,44.9,26-44.9,26Zm0-55.11,44.9-26,44.9,26-44.9,26Zm0-55.08,44.9-26,44.9,26-44.9,26Zm0-55.1,44.9-26,44.9,26-44.9,26Zm-2.69-1.56-44.9-26,44.9-26,44.9,26Zm-2.69,1.56-44.91,26-44.89-26,44.89-26Zm-92.5-1.56-44.9-26,44.9-26,44.9,26Zm-2.69,1.56-44.9,26-44.91-26,44.91-26Zm-92.5-1.56-44.9-26,44.9-26,44.9,26Zm-2.69,1.56-44.9,26-44.91-26,44.91-26Zm-92.49-1.56-44.91-26,44.91-26,44.91,26Zm-2.7,1.56-44.89,26-44.92-26,44.92-26Zm-92.5-1.56-44.9-26,44.9-26,44.91,26Zm-2.67,1.56-44.91,26-44.91-26,44.91-26Zm-92.5-1.56-44.9-26,44.9-26,44.89,26Zm-2.7,1.56-44.9,26-44.91-26,44.91-26Zm-92.49-1.56-44.9-26,44.9-26,44.89,26Zm-2.7,1.56-44.89,26-44.92-26,44.92-26Zm-92.49-1.56-49.86-28.86,44.9-26,49.86,28.84Zm-2.69,1.56-44.92,26-49.84-28.87,44.89-26Zm-97.46-4.44-44.9-26,44.9-26,44.91,26Zm-2.69,1.56-49.86,28.87-44.91-26,49.87-28.86Zm-97.45,1.32-44.91-26,49.87-28.84,44.89,26Zm-2.7,1.56-44.89,26-44.92-26,44.92-26Zm-92.5-1.56-44.9-26,44.9-26,44.91,26Zm-2.67,1.56-44.92,26-44.9-26,44.9-26Zm-92.52-1.56-44.88-26,44.88-26,44.93,26Zm-2.67,1.56-44.91,26-44.91-26,44.91-26Zm-92.5-1.56-44.92-26,44.92-26,44.89,26Zm-2.7,1.56-44.89,26-44.92-26,44.92-26Zm-92.49-1.56-44.9-26,44.9-26,44.9,26Zm-2.69,1.56-44.92,26-44.88-26,44.88-26Zm-92.5-1.56-44.89-26,44.89-26,44.9,26Zm-2.7,1.56-44.89,26-44.9-26,44.9-26Zm-92.48-1.56-44.91-26,44.91-26,44.89,26Zm-2.7,1.56-44.9,26-44.91-26,44.91-26Zm-92.5-1.56-44.9-26,44.9-26,44.91,26Zm-2.68,1.56-44.91,26-44.9-26,44.9-26Zm-92.5-1.56-44.91-26,44.91-26,44.9,26Zm44.9,29.11-44.9,26-44.91-26,44.91-26Zm0,55.08-44.9,26-44.91-26,44.91-26Zm0,55.11-44.9,26-44.91-26,44.91-26Zm0,55.1-44.9,26-44.91-26,44.91-26Zm0,55.08-44.9,26-44.91-26,44.91-26Zm0,55.11-44.9,26-44.91-26,44.91-26Zm0,55.08-44.9,26-44.91-26,44.91-26Zm0,55.1-48.21,27.9-44.89-26L136.75,190Zm-3.31,57-44.9,26L88.55,273l44.89-26Zm5,58-44.9,26L88.55,328.06l44.89-26Zm0,55.1-44.9,26L93.51,386l44.89-26Zm0,55.1-44.9,26-44.89-26,44.89-26Zm0,55.08-44.9,26-44.89-26,44.89-26Zm0,55.11-44.9,26-44.89-26,44.89-26Zm0,55.09-44.9,26-44.89-26,44.89-26Zm0,55.09-44.9,26-44.89-26,44.89-26Zm0,55.11-44.9,26-44.89-26,44.89-26Zm0,55.09-44.9,26-44.89-26,44.89-26Zm0,55.09-44.9,26-44.89-26,44.89-26Zm0,55.1-44.9,26-44.89-26,44.89-26Zm0,55.09-44.9,26L93.51,937l44.89-26Zm0,55.1-44.9,26-44.89-26,44.89-26Zm0,55.1-44.9,26-44.89-26,44.89-26Zm0,55.09-49.86,28.86-44.89-26,49.85-28.87Zm-5,58-44.9,26-44.89-26,44.89-26Zm3.31,57-44.9,26-48.2-27.9,44.89-26Zm0,55.09-44.9,26-44.91-26,44.91-26Zm0,55.1-44.9,26-44.91-26,44.91-26Zm0,55.1-44.9,26-44.91-26,44.91-26Zm0,55.09-44.9,26-44.91-26,44.91-26Zm0,55.1-44.9,26-44.91-26,44.91-26Zm2.69,1.56,44.91,26-44.91,26-44.9-26Zm2.69-1.56,44.9-26,44.91,26-44.91,26Zm92.5,1.56,44.9,26-44.9,26-44.91-26Zm2.69-1.56,44.91-26,44.89,26-44.89,26Zm92.5,1.56,44.89,26-44.89,26-44.9-26Zm2.68-1.56,44.91-26,44.9,26-44.9,26Zm92.49,1.56,44.92,26-44.92,26-44.88-26Zm2.71-1.56,44.9-26,44.9,26-44.9,26Zm92.5,1.56,44.89,26-44.89,26-44.92-26Zm2.67-1.56,44.92-26,44.89,26-44.89,26Zm92.51,1.56,44.91,26-44.91,26-44.91-26Zm2.7-1.56,44.88-26,44.93,26-44.93,26Zm92.48,1.56,44.92,26-44.92,26-44.9-26Zm2.69-1.56L808,1463.85l44.91,26-49.87,28.86Zm97.46-1.31,44.9,26-49.86,28.85-44.91-26Zm2.68-1.56,44.92-26,44.89,26-44.89,26Zm92.51,1.56,44.9,26-44.9,26-44.91-26Zm2.69-1.56,44.9-26,44.91,26-44.91,26Zm92.49,1.56,44.91,26-44.91,26-44.89-26Zm2.7-1.56,44.9-26,44.9,26-44.9,26Zm92.5,1.56,49.85,28.86-44.89,26-49.87-28.85Zm2.69-1.56,44.9-26,49.85,28.86-44.89,26Zm97.45,4.43,44.9,26-44.9,26-44.91-26Zm2.7-1.56,44.9-26,44.89,26-44.89,26Zm92.49,1.56,44.91,26-44.91,26-44.91-26Zm2.68-1.56,44.9-26,44.91,26-44.91,26Zm92.5,1.56,44.9,26-44.9,26-44.91-26Zm2.69-1.56,44.91-26,44.91,26-44.91,26Zm92.5,1.56,44.9,26-44.9,26-44.91-26Zm2.69-1.56,44.9-26,44.9,26-44.9,26Zm92.5,1.56,44.9,26-44.9,26-44.91-26Zm2.69-1.56,44.9-26,44.9,26-44.9,26Zm92.49,1.56,44.91,26-44.91,26-44.89-26Zm2.7-1.56,44.9-26,44.9,26-44.9,26Zm92.49,1.56,44.9,26-44.9,26-44.9-26Zm-44.9-29.11,44.9-26,44.9,26-44.9,26Zm0-55.1,44.9-26,44.9,26-44.9,26Zm0-55.09,44.9-26,44.9,26-44.9,26Zm0-55.09,44.9-26,44.9,26-44.9,26Zm0-55.11,44.9-26,44.9,26-44.9,26Zm0-55.09,48.2-27.9,44.91,26-48.21,27.9Zm-1.66-59.87,44.9-26,49.87,28.86-44.91,26Zm0-55.1,44.9-26,44.91,26-44.91,26Zm0-55.09,44.9-26,44.91,26-44.91,26Zm0-55.1,44.9-26,44.91,26-44.91,26Zm0-55.09,44.9-26,44.91,26-44.91,26Zm0-55.09,44.9-26,44.91,26-44.91,26Zm0-55.11,44.9-26,44.91,26-44.91,26Zm0-55.09,44.9-26,44.91,26-44.91,26Zm0-55.09,44.9-26,44.91,26-44.91,26Zm0-55.11,44.9-26,44.91,26-44.91,26Zm0-55.08,44.9-26,44.91,26-44.91,26Zm0-55.09,44.9-26,44.91,26-44.91,26Zm0-55.11,44.9-26,44.91,26-44.91,26Zm0-55.09,44.9-26,44.91,26-44.91,26Zm0-55.09,44.9-26,44.91,26-44.91,26Zm0-55.1,49.86-28.87,44.91,26-49.87,28.85Zm1.66-59.88,44.9-26,48.21,27.9-44.91,26Zm0-55.1,44.9-26,44.9,26-44.9,26Zm0-55.08,44.9-26,44.9,26-44.9,26Zm0-55.11,44.9-26,44.9,26-44.9,26ZM1904.93-4.42l-44.89,26-44.9-26,44.9-26Zm0-55.1-44.9,26-44.9-26,44.9-26Zm0-55.11-44.9,26-44.9-26,44.9-26Zm0-55.08-44.9,26-44.9-26,44.9-26Zm0-55.11-44.9,26-44.9-26,44.9-26ZM1860-305.89l44.9,26-44.9,26-44.9-26Zm-2.7,53.52-44.9,26-44.9-26,44.9-26Zm-92.49-53.52,44.9,26-44.9,26-44.9-26Zm-2.69,53.52-44.91,26-44.89-26,44.89-26Zm-92.5-53.52,44.9,26-44.9,26-44.9-26ZM1667-252.37l-44.9,26-44.91-26,44.91-26Zm-92.5-53.52,44.9,26-44.9,26-44.9-26Zm-2.69,53.52-44.9,26-44.91-26,44.91-26Zm-92.49-53.52,44.91,26-44.91,26-44.91-26Zm-2.7,53.52-44.89,26-44.92-26,44.92-26Zm-92.5-53.52,44.91,26-44.91,26-44.9-26Zm-2.67,53.52-44.91,26-44.91-26,44.91-26Zm-92.5-53.52,44.89,26-44.89,26-44.9-26Zm-2.7,53.52-44.9,26-44.91-26,44.91-26Zm-97.45-56.4,49.85,28.87-44.89,26-49.86-28.84Zm2.26,56.4-44.89,26-49.87-28.86,44.91-26Zm-97.45-56.4,44.9,26-44.9,26-44.9-26Zm-2.69,53.55-44.91,26-44.89-26,44.89-26Zm-92.5-53.55,44.91,26-44.91,26-44.9-26Zm-2.69,53.55-44.9,26-44.91-26,44.91-26Zm-92.49-53.55,44.89,26-44.89,26-44.92-26Zm-2.7,53.55-49.85,28.86-44.92-26,49.87-28.84ZM808-308.77l44.91,26-49.87,28.84-44.9-26Zm-7.63,56.4-44.92,26-44.9-26,44.9-26Zm-92.52-53.52,44.93,26-44.93,26L663-279.9Zm-2.67,53.52-44.91,26-44.91-26,44.91-26Zm-92.5-53.52,44.89,26-44.89,26-44.92-26ZM610-252.37l-44.89,26-44.92-26,44.92-26ZM517.5-305.89l44.9,26-44.9,26-44.9-26Zm-2.69,53.52-44.92,26-44.88-26,44.88-26Zm-92.5-53.52,44.9,26-44.9,26-44.89-26Zm-2.7,53.52-44.89,26-44.9-26,44.9-26Zm-92.48-53.52,44.89,26-44.89,26-44.91-26Zm-2.7,53.52-44.9,26-44.91-26,44.91-26Zm-92.5-53.52,44.91,26-44.91,26-44.9-26Zm-2.68,53.52-44.91,26-44.9-26,44.9-26Zm-92.5-53.52,44.9,26-44.9,26-44.91-26Zm-92.5,53.52,44.9-26,44.9,26-44.9,26Zm0,55.11,44.9-26,44.9,26-44.9,26Zm0,55.1,44.9-26,44.9,26-44.9,26Zm0,55.08,44.9-26,44.9,26-44.9,26Zm0,55.11,44.9-26,44.9,26L89.15-6Zm0,55.08,44.9-26,44.9,26-44.9,26Zm0,55.1,44.9-26,44.9,26-44.9,26Zm0,55.11,44.9-26,44.9,26-44.9,26Zm-3.3,57,48.2-27.91,44.9,26-48.2,27.9Zm0,55.09,44.9-26,44.89,26-44.89,26Zm0,55.1,44.9-26,44.89,26-44.89,26Zm0,55.09,44.9-26,49.84,28.86-44.88,26Zm5,58,44.9-26,44.88,26-44.88,26Zm0,55.09,44.9-26,44.88,26-44.88,26Zm0,55.11,44.9-26,44.88,26-44.88,26Zm0,55.09,44.9-26,44.88,26-44.88,26Zm0,55.08,44.9-26,44.88,26L90.81,660Zm0,55.11,44.9-26,44.88,26L90.81,715Zm0,55.09,44.9-26,44.88,26-44.88,26Zm0,55.09,44.9-26,44.88,26-44.88,26Zm0,55.11,44.9-26,44.88,26-44.88,26Zm0,55.09,44.9-26,44.88,26-44.88,26Zm0,55.09,44.9-26,44.88,26-44.88,26Zm0,55.1,44.9-26,44.88,26-44.88,26Zm-5,58,49.86-28.86,44.88,26-49.84,28.86Zm0,55.1,44.9-26,44.89,26-44.89,26Zm0,55.09,44.9-26,44.89,26-44.89,26Zm0,55.1,44.9-26,48.2,27.89-44.9,26Zm3.3,57,44.9-26,44.9,26-44.9,26Zm0,55.09,44.9-26,44.9,26-44.9,26Zm0,55.09,44.9-26,44.9,26-44.9,26Zm0,55.1,44.9-26,44.9,26-44.9,26Zm0,55.1,44.9-26,44.9,26-44.9,26Zm44.9,81.08-44.9-26,44.9-26,44.9,26Zm2.69-53.54,44.91-26,44.9,26-44.9,26Zm92.5,53.54-44.9-26,44.9-26,44.91,26ZM187,1547.8l44.9-26,44.91,26-44.91,26Zm92.5,53.54-44.91-26,44.91-26,44.9,26Zm2.69-53.54,44.91-26,44.89,26-44.89,26Zm92.5,53.54-44.9-26,44.9-26,44.89,26Zm2.68-53.54,44.91-26,44.9,26-44.9,26Zm92.49,53.54-44.88-26,44.88-26,44.92,26Zm2.71-53.54,44.9-26,44.9,26-44.9,26Zm92.5,53.54-44.92-26,44.92-26,44.89,26Zm2.67-53.54,44.92-26,44.89,26-44.89,26Zm92.51,53.54-44.91-26,44.91-26,44.91,26Zm2.7-53.54,44.88-26,44.93,26-44.93,26Zm92.48,53.54-44.9-26,44.9-26,44.92,26Zm2.69-53.54,44.9-26,44.91,26-44.91,26Zm92.5,53.54-44.91-26,44.91-26,44.9,26Zm2.69-53.54L903.21,1519l44.89,26-49.85,28.85Zm92.5,53.54-44.91-26,49.87-28.85,44.9,26Zm7.65-56.4,44.9-26,44.91,26-44.91,26Zm97.44,56.4-49.84-28.85,44.89-26,49.87,28.85Zm-2.25-56.4,44.9-26,49.86,28.85-44.9,26Zm97.46,56.4-44.92-26,44.92-26,44.89,26Zm2.67-53.54,44.92-26,44.89,26-44.89,26Zm92.51,53.54-44.91-26,44.91-26,44.9,26Zm2.7-53.54,44.9-26,44.89,26-44.89,26Zm92.49,53.54-44.91-26,44.91-26,44.91,26Zm2.68-53.54,44.9-26,44.91,26-44.91,26Zm92.5,53.54-44.91-26,44.91-26,44.9,26Zm2.69-53.54,44.91-26,44.91,26-44.91,26Zm92.5,53.54-44.91-26,44.91-26,44.9,26Zm2.69-53.54,44.9-26,44.9,26-44.9,26Zm92.5,53.54-44.91-26,44.91-26,44.9,26Zm2.69-53.54,44.9-26,44.9,26-44.9,26Zm92.49,53.54-44.89-26,44.89-26,44.91,26Zm2.7-53.54,44.9-26,44.9,26-44.9,26Zm92.49,53.54-44.9-26,44.9-26,44.9,26Zm92.49-53.54-44.89,26-44.9-26,44.9-26Zm0-55.09-44.89,26-44.9-26,44.9-26Zm0-55.1-44.89,26-44.9-26,44.9-26Zm0-55.09-44.89,26-44.9-26,44.9-26Zm0-55.1-44.89,26-44.9-26,44.9-26Zm0-55.1-44.89,26-44.9-26,44.9-26Zm3.31-57-48.2,27.9-44.9-26,48.2-27.9Zm0-55.1-44.9,26-44.9-26,44.9-26Zm0-55.08-44.9,26-49.86-28.86,44.89-26Zm-4.94-58-44.93,26-44.89-26,44.89-26Zm0-55.1-44.93,26-44.89-26,44.89-26Zm0-55.1-44.93,26-44.89-26,44.89-26Zm0-55.09-44.93,26-44.89-26,44.89-26Zm0-55.1-44.93,26-44.89-26,44.89-26Zm0-55.09-44.93,26-44.89-26,44.89-26Zm0-55.09-44.93,26-44.89-26,44.89-26Zm0-55.09-44.93,26-44.89-26,44.89-26Zm0-55.11-44.93,26-44.89-26,44.89-26Zm0-55.09-44.93,26-44.89-26,44.89-26Zm0-55.11-44.93,26-44.89-26,44.89-26Zm0-55.08-44.93,26-44.89-26,44.89-26Zm0-55.1-44.93,26-44.89-26,44.89-26Zm4.94-58-49.87,28.86-44.89-26,49.86-28.86Zm0-55.11-44.9,26-44.9-26,44.9-26Zm0-55.08-44.9,26-48.2-27.9,44.9-26Zm-3.31-57-44.89,26-44.9-26,44.9-26ZM1860,131.75l-44.9-26,44.9-26,44.89,26Z"/></g></g><path class="cls-7" d="M692.22,757.91c-8.81,3.34-21.41,2.61-30.81-1.91V721.62h30.81Z"/><path class="cls-8" d="M253.56,744,704.73,483.33c17.47-10.09,31.63-37.14,31.63-60.43V69c0-23.29-14.16-34-31.63-23.91L253.56,305.69c-17.47,10.09-31.63,37.14-31.63,60.43V720.05C221.93,743.34,236.09,754.05,253.56,744Z"/><path class="cls-9" d="M249.49,725.77,695.84,468c14.06-8.94,22.75-26.79,22.75-45.05V67.25a5.6,5.6,0,0,0-8.44-4.83l-1,.58L262.45,321.07c-16.74,9.65-22.75,26.79-22.75,45.05V720.94a6.05,6.05,0,0,0,9.05,5.25Z"/><path class="cls-10" d="M239.7,366.12V720.94a6.05,6.05,0,0,0,9.05,5.25l.74-.42L695.84,468c14.06-8.94,22.75-26.79,22.75-45.05V67.25a5.6,5.6,0,0,0-8.44-4.83l-1,.58L262.45,321.07C245.71,330.72,239.7,347.86,239.7,366.12Zm3.55,0c0-13.63,3.64-32,21-42L711.94,65.48a2,2,0,0,1,3.1,1.77V422.9c0,17.4-8.28,33.9-21,42L247,723.11a2.49,2.49,0,0,1-3.74-2.17Z"/><path class="cls-11" d="M244.6,300.93,695.77,40.3c6.91-4,13.3-4.73,18.5-2.72.66.25,9.48,4.94,10.1,5.28l0,0c-5.38-2.61-12.22-2.13-19.67,2.18L253.56,305.69c-17.47,10.09-31.63,37.14-31.63,60.43V720.05c0,14.54,5.52,24.17,13.91,26.91a5.31,5.31,0,0,1-2.77-1c-.4-.23-10-5.63-10.35-5.9-6-4.2-9.75-12.85-9.75-24.82V361.36C213,338.07,227.13,311,244.6,300.93Z"/><path class="cls-11" d="M244.6,300.93,695.77,40.3c6.91-4,13.3-4.73,18.5-2.72.66.25,9.48,4.94,10.1,5.28l0,0c-5.38-2.61-12.22-2.13-19.67,2.18L253.56,305.69Z"/><path class="cls-12" d="M252,304.93,703.21,44.3c7.16-4.14,13.75-4.73,19-2.44-4.52-.71-9.72.38-15.25,3.58L255.84,306.07c-17.47,10.09-31.63,37.14-31.63,60.43V720.43c0,13.74,4.95,23.05,12.58,26.35-9.76-1.55-16.37-11.57-16.37-27.49V365.36C220.42,342.07,234.58,315,252,304.93Z"/><path class="cls-11" d="M236.85,760.14l63.59-8.39L711,514.73c13.16-7.6,36.15-6.65,51.35,2.13l290.9,167.89,38.45-5.08v21.82h0c.26,5-2.62,9.9-8.83,13.48L617.56,983.58c-13.16,7.6-36.15,6.65-51.35-2.13L249.41,798.61c-8.55-4.94-12.81-11.29-12.56-17.27h0Z"/><path class="cls-13" d="M545.3,610.38l29.17-16.84H895.13l158.09,91.21,38.45-5.08v21.82h0c.26,5-2.62,9.9-8.83,13.48L617.56,983.58c-7,4-16.66,5.62-26.5,5Z"/><path class="cls-14" d="M617.56,961.79,1082.8,693.18c13.17-7.6,11.52-20.87-3.68-29.65L762.32,480.69c-15.2-8.78-38.19-9.73-51.35-2.13L245.72,747.17c-13.16,7.6-11.51,20.87,3.69,29.65l316.8,182.84C581.41,968.43,604.4,969.39,617.56,961.79Z"/><path class="cls-14" d="M249.41,768.85l316.8,182.84c15.2,8.77,38.19,9.73,51.35,2.13L1082.8,685.21c4.32-2.49,7-5.6,8.19-9,2.06,6.22-.57,12.52-8.71,17.22L617,962.09c-12.64,7.3-35.63,6.34-50.83-2.43L249.41,776.82c-10.21-5.9-14.28-13.83-11.87-20.7C239,760.66,243,765.15,249.41,768.85Z"/><path class="cls-13" d="M910.23,614.41l21-12.15c1.69-1,1.48-2.68-.47-3.81L906,584.11a7.35,7.35,0,0,0-6.6-.28L878.31,596c-1.69,1-1.47,2.68.48,3.8l24.84,14.35A7.32,7.32,0,0,0,910.23,614.41Z"/><path class="cls-13" d="M877.72,633.18l21-12.15c1.69-1,1.48-2.68-.47-3.81l-24.85-14.35a7.36,7.36,0,0,0-6.59-.27l-21.05,12.15c-1.69,1-1.48,2.69.47,3.81l24.85,14.35A7.33,7.33,0,0,0,877.72,633.18Z"/><path class="cls-13" d="M845.21,652l21-12.15c1.69-1,1.48-2.68-.47-3.81l-24.85-14.35a7.33,7.33,0,0,0-6.59-.27L813.3,633.52c-1.69,1-1.48,2.68.47,3.81l24.85,14.35A7.33,7.33,0,0,0,845.21,652Z"/><path class="cls-13" d="M800.25,636.45l21-12.15c1.69-1,1.48-2.68-.47-3.81l-20.86-12a7.33,7.33,0,0,0-6.59-.28l-21,12.16c-1.69,1-1.48,2.68.47,3.8l20.86,12A7.36,7.36,0,0,0,800.25,636.45Z"/><path class="cls-13" d="M767.74,655.22l21-12.16c1.69-1,1.48-2.68-.47-3.8l-20.86-12a7.33,7.33,0,0,0-6.59-.28l-21,12.16c-1.69,1-1.48,2.68.47,3.8l20.86,12A7.33,7.33,0,0,0,767.74,655.22Z"/><path class="cls-13" d="M735.23,674l21-12.16c1.69-1,1.48-2.68-.47-3.8L735,646a7.33,7.33,0,0,0-6.59-.27l-21.05,12.15c-1.69,1-1.48,2.68.47,3.81l20.86,12A7.33,7.33,0,0,0,735.23,674Z"/><path class="cls-13" d="M702.73,692.76l21-12.16c1.69-1,1.47-2.68-.48-3.81l-20.86-12a7.33,7.33,0,0,0-6.59-.27L674.8,676.63c-1.69,1-1.48,2.68.47,3.81l20.86,12A7.35,7.35,0,0,0,702.73,692.76Z"/><path class="cls-13" d="M670.22,711.52l21-12.15c1.69-1,1.48-2.68-.48-3.81l-20.85-12a7.32,7.32,0,0,0-6.6-.27L642.29,695.4c-1.69,1-1.48,2.68.48,3.81l20.85,12A7.32,7.32,0,0,0,670.22,711.52Z"/><path class="cls-13" d="M637.71,730.29l21-12.15c1.69-1,1.48-2.68-.47-3.81l-20.86-12a7.32,7.32,0,0,0-6.6-.27l-21.05,12.15c-1.69,1-1.48,2.68.48,3.81l20.85,12A7.32,7.32,0,0,0,637.71,730.29Z"/><path class="cls-13" d="M605.2,749.06l21-12.15c1.69-1,1.48-2.68-.47-3.81l-20.86-12a7.3,7.3,0,0,0-6.59-.27l-21.05,12.15c-1.7,1-1.48,2.68.47,3.81l20.86,12A7.33,7.33,0,0,0,605.2,749.06Z"/><path class="cls-13" d="M572.69,767.83l21-12.15c1.69-1,1.48-2.68-.47-3.81l-20.86-12a7.33,7.33,0,0,0-6.59-.28l-21.05,12.16c-1.69,1-1.48,2.68.47,3.8l20.86,12A7.33,7.33,0,0,0,572.69,767.83Z"/><path class="cls-13" d="M540.18,786.6l21.05-12.15c1.69-1,1.48-2.68-.47-3.81l-20.86-12a7.33,7.33,0,0,0-6.59-.28l-21,12.16c-1.69,1-1.48,2.68.47,3.8l20.86,12.05A7.33,7.33,0,0,0,540.18,786.6Z"/><path class="cls-13" d="M507.67,805.37l21.06-12.16c1.69-1,1.47-2.68-.48-3.8l-20.86-12a7.33,7.33,0,0,0-6.59-.28l-21.05,12.16c-1.69,1-1.48,2.68.47,3.8l20.86,12A7.33,7.33,0,0,0,507.67,805.37Z"/><path class="cls-13" d="M752.35,627.56l21-12.15c1.69-1,1.48-2.68-.47-3.81l-20.86-12a7.3,7.3,0,0,0-6.59-.27l-21.05,12.15c-1.69,1-1.48,2.68.47,3.81l20.86,12A7.3,7.3,0,0,0,752.35,627.56Z"/><path class="cls-13" d="M785.35,608.51l21-12.15c1.69-1,1.47-2.68-.48-3.81l-20.86-12a7.33,7.33,0,0,0-6.59-.27l-21.05,12.15c-1.69,1-1.48,2.68.47,3.81l20.86,12A7.32,7.32,0,0,0,785.35,608.51Z"/><path class="cls-13" d="M818.39,589.43l45.34-26.17c1.69-1,1.48-2.68-.47-3.81l-20.86-12a7.3,7.3,0,0,0-6.59-.27l-45.34,26.17c-1.69,1-1.48,2.68.47,3.81l20.86,12A7.3,7.3,0,0,0,818.39,589.43Z"/><path class="cls-13" d="M795.29,566.23,832.09,545c1.69-1,1.47-2.68-.48-3.81l-20.86-12a7.3,7.3,0,0,0-6.59-.27l-36.79,21.24c-1.69,1-1.48,2.68.47,3.81l20.86,12A7.33,7.33,0,0,0,795.29,566.23Z"/><path class="cls-13" d="M719.84,646.33l21-12.15c1.69-1,1.48-2.68-.47-3.81l-20.86-12a7.3,7.3,0,0,0-6.59-.27l-21.05,12.15c-1.69,1-1.48,2.68.47,3.81l20.86,12A7.3,7.3,0,0,0,719.84,646.33Z"/><path class="cls-13" d="M687.33,665.1l21-12.15c1.7-1,1.48-2.68-.47-3.81l-20.86-12a7.3,7.3,0,0,0-6.59-.27L659.41,649c-1.69,1-1.48,2.68.47,3.81l20.86,12A7.33,7.33,0,0,0,687.33,665.1Z"/><path class="cls-13" d="M654.83,683.87l21-12.15c1.69-1,1.48-2.68-.48-3.81l-20.85-12a7.35,7.35,0,0,0-6.6-.28L626.9,667.75c-1.69,1-1.48,2.68.47,3.8l20.86,12.05A7.35,7.35,0,0,0,654.83,683.87Z"/><path class="cls-13" d="M622.32,702.64l21-12.15c1.69-1,1.48-2.69-.48-3.81l-20.85-12a7.35,7.35,0,0,0-6.6-.28l-21.05,12.16c-1.69,1-1.48,2.68.48,3.8l20.85,12A7.38,7.38,0,0,0,622.32,702.64Z"/><path class="cls-13" d="M589.81,721.41l21.05-12.16c1.69-1,1.48-2.68-.47-3.8L589.53,693.4a7.36,7.36,0,0,0-6.59-.27l-21.06,12.15c-1.69,1-1.47,2.68.48,3.81l20.86,12A7.33,7.33,0,0,0,589.81,721.41Z"/><path class="cls-13" d="M557.3,740.18,578.35,728c1.69-1,1.48-2.68-.47-3.8L557,712.17a7.33,7.33,0,0,0-6.59-.27l-21,12.15c-1.69,1-1.48,2.68.47,3.81l20.86,12A7.33,7.33,0,0,0,557.3,740.18Z"/><path class="cls-13" d="M524.79,759l21.05-12.16c1.69-1,1.48-2.68-.47-3.81l-20.86-12a7.3,7.3,0,0,0-6.59-.27l-21,12.15c-1.69,1-1.48,2.68.47,3.81l20.86,12A7.33,7.33,0,0,0,524.79,759Z"/><path class="cls-13" d="M492.28,777.71l21.05-12.15c1.69-1,1.48-2.68-.47-3.81l-20.86-12a7.3,7.3,0,0,0-6.59-.27l-21.05,12.15c-1.69,1-1.48,2.68.47,3.81l20.86,12A7.3,7.3,0,0,0,492.28,777.71Z"/><path class="cls-13" d="M459.78,796.48l21.05-12.15c1.69-1,1.47-2.68-.48-3.81l-20.85-12a7.32,7.32,0,0,0-6.6-.27l-21,12.15c-1.69,1-1.48,2.68.47,3.81l20.86,12A7.32,7.32,0,0,0,459.78,796.48Z"/><path class="cls-13" d="M402,829.85l45.93-26.52c1.69-1,1.48-2.68-.47-3.81l-20.86-12a7.33,7.33,0,0,0-6.59-.27l-45.93,26.52c-1.69,1-1.48,2.68.47,3.8l20.86,12.05A7.36,7.36,0,0,0,402,829.85Z"/><path class="cls-13" d="M338.69,793.31l38.77-22.38c1.69-1,1.48-2.68-.47-3.81l-20.86-12a7.33,7.33,0,0,0-6.59-.28l-38.77,22.39c-1.69,1-1.48,2.68.47,3.8l20.86,12A7.36,7.36,0,0,0,338.69,793.31Z"/><path class="cls-13" d="M662.91,642.66,684,630.51c1.69-1,1.48-2.68-.47-3.81l-20.86-12a7.33,7.33,0,0,0-6.59-.28l-21,12.16c-1.69,1-1.48,2.68.47,3.8l20.86,12A7.33,7.33,0,0,0,662.91,642.66Z"/><path class="cls-13" d="M696.23,623.42l21-12.15c1.69-1,1.48-2.68-.47-3.81l-20.86-12a7.3,7.3,0,0,0-6.59-.27L668.31,607.3c-1.69,1-1.48,2.68.47,3.81l20.86,12A7.3,7.3,0,0,0,696.23,623.42Z"/><path class="cls-13" d="M729.55,604.19,750.6,592c1.69-1,1.48-2.69-.48-3.81l-20.85-12a7.35,7.35,0,0,0-6.6-.28l-21,12.16c-1.69,1-1.48,2.68.48,3.8l20.85,12A7.38,7.38,0,0,0,729.55,604.19Z"/><path class="cls-13" d="M762.86,585l21.06-12.15c1.69-1,1.47-2.68-.48-3.81l-20.86-12a7.3,7.3,0,0,0-6.59-.27l-21,12.15c-1.69,1-1.48,2.68.47,3.81l20.86,12A7.3,7.3,0,0,0,762.86,585Z"/><path class="cls-13" d="M630.41,661.43l21.05-12.16c1.69-1,1.47-2.68-.48-3.8l-20.86-12a7.33,7.33,0,0,0-6.59-.28l-21,12.16c-1.69,1-1.48,2.68.47,3.8l20.86,12A7.38,7.38,0,0,0,630.41,661.43Z"/><path class="cls-13" d="M597.9,680.2,619,668c1.69-1,1.48-2.68-.48-3.8l-20.85-12a7.38,7.38,0,0,0-6.6-.27l-21,12.15c-1.69,1-1.48,2.69.48,3.81l20.85,12A7.35,7.35,0,0,0,597.9,680.2Z"/><path class="cls-13" d="M565.39,699l21.05-12.16c1.69-1,1.48-2.68-.47-3.8l-20.86-12a7.35,7.35,0,0,0-6.6-.27l-21,12.15c-1.69,1-1.47,2.68.48,3.81l20.85,12A7.35,7.35,0,0,0,565.39,699Z"/><path class="cls-13" d="M532.88,717.73l21-12.15c1.69-1,1.48-2.68-.47-3.81l-20.86-12a7.33,7.33,0,0,0-6.59-.27L505,701.61c-1.69,1-1.47,2.68.48,3.81l20.86,12A7.3,7.3,0,0,0,532.88,717.73Z"/><path class="cls-13" d="M500.37,736.5l21-12.15c1.69-1,1.48-2.68-.47-3.81l-20.86-12a7.3,7.3,0,0,0-6.59-.27l-21.05,12.15c-1.69,1-1.48,2.68.47,3.81l20.86,12A7.3,7.3,0,0,0,500.37,736.5Z"/><path class="cls-13" d="M467.86,755.27l21.05-12.15c1.69-1,1.48-2.68-.47-3.81l-20.86-12A7.3,7.3,0,0,0,461,727l-21.05,12.15c-1.69,1-1.48,2.68.47,3.81l20.86,12A7.3,7.3,0,0,0,467.86,755.27Z"/><path class="cls-13" d="M435.35,774l21.06-12.15c1.69-1,1.47-2.68-.48-3.81l-20.86-12a7.3,7.3,0,0,0-6.59-.27l-21.05,12.15c-1.69,1-1.48,2.68.47,3.81l20.86,12A7.33,7.33,0,0,0,435.35,774Z"/><path class="cls-13" d="M402.85,792.81l21-12.15c1.69-1,1.48-2.68-.48-3.81l-20.85-12a7.35,7.35,0,0,0-6.6-.28l-21.05,12.16c-1.69,1-1.48,2.68.47,3.8l20.86,12A7.35,7.35,0,0,0,402.85,792.81Z"/><path class="cls-13" d="M370.34,811.58l21.05-12.15c1.69-1,1.48-2.69-.48-3.81l-20.85-12a7.35,7.35,0,0,0-6.6-.28l-21,12.16c-1.69,1-1.48,2.68.48,3.8l20.85,12A7.38,7.38,0,0,0,370.34,811.58Z"/><path class="cls-13" d="M680,596.24l21.05-12.16c1.69-1,1.48-2.68-.47-3.8l-20.86-12a7.33,7.33,0,0,0-6.59-.27l-21,12.15c-1.69,1-1.48,2.68.47,3.81l20.86,12A7.33,7.33,0,0,0,680,596.24Z"/><path class="cls-13" d="M712.38,577.56l21-12.15c1.69-1,1.48-2.68-.47-3.81l-20.86-12a7.32,7.32,0,0,0-6.6-.27l-21,12.15c-1.69,1-1.48,2.68.48,3.81l20.85,12A7.35,7.35,0,0,0,712.38,577.56Z"/><path class="cls-13" d="M744.72,558.89l21.06-12.16c1.69-1,1.47-2.68-.48-3.8l-20.86-12a7.33,7.33,0,0,0-6.59-.27L716.8,542.76c-1.69,1-1.48,2.68.47,3.81l20.86,12A7.33,7.33,0,0,0,744.72,558.89Z"/><path class="cls-13" d="M777.07,540.21l21-12.15c1.69-1,1.48-2.68-.47-3.81l-20.86-12a7.33,7.33,0,0,0-6.59-.28l-21.05,12.16c-1.69,1-1.48,2.68.47,3.81l20.86,12A7.33,7.33,0,0,0,777.07,540.21Z"/><path class="cls-13" d="M743.81,521l21.05-12.16c1.69-1,1.48-2.68-.47-3.8l-6.9-4a7.36,7.36,0,0,0-6.59-.27l-21,12.15c-1.69,1-1.48,2.69.47,3.81l6.9,4A7.33,7.33,0,0,0,743.81,521Z"/><path class="cls-13" d="M701.6,545.38l21-12.16c1.69-1,1.48-2.68-.48-3.8l-6.89-4a7.35,7.35,0,0,0-6.6-.28l-21,12.16c-1.69,1-1.47,2.68.48,3.8l6.89,4A7.35,7.35,0,0,0,701.6,545.38Z"/><path class="cls-13" d="M669.39,564l21.05-12.16c1.69-1,1.47-2.68-.48-3.81l-6.89-4a7.35,7.35,0,0,0-6.6-.27l-21.05,12.15c-1.69,1-1.48,2.68.48,3.81l6.89,4A7.35,7.35,0,0,0,669.39,564Z"/><path class="cls-13" d="M637.17,582.57l21.05-12.15c1.69-1,1.48-2.68-.47-3.81l-6.89-4a7.32,7.32,0,0,0-6.6-.27l-21,12.15c-1.69,1-1.48,2.68.47,3.81l6.9,4A7.3,7.3,0,0,0,637.17,582.57Z"/><path class="cls-13" d="M605,601.17,626,589c1.69-1,1.48-2.68-.47-3.81l-6.9-4a7.3,7.3,0,0,0-6.59-.27l-21,12.15c-1.69,1-1.48,2.68.47,3.81l6.9,4A7.33,7.33,0,0,0,605,601.17Z"/><path class="cls-13" d="M425.13,705l21.05-12.16c1.69-1,1.48-2.68-.48-3.8l-6.89-4a7.35,7.35,0,0,0-6.6-.28l-21,12.16c-1.69,1-1.47,2.68.48,3.8l6.89,4A7.35,7.35,0,0,0,425.13,705Z"/><path class="cls-13" d="M392.91,723.6,414,711.44c1.69-1,1.47-2.68-.48-3.81l-6.89-4a7.35,7.35,0,0,0-6.6-.27L379,715.53c-1.69,1-1.48,2.68.48,3.81l6.89,4A7.33,7.33,0,0,0,392.91,723.6Z"/><path class="cls-13" d="M360.7,742.19,381.75,730c1.69-1,1.48-2.68-.47-3.81l-6.9-4a7.3,7.3,0,0,0-6.59-.27l-21.05,12.15c-1.69,1-1.48,2.68.47,3.81l6.9,4A7.3,7.3,0,0,0,360.7,742.19Z"/><path class="cls-13" d="M328.49,760.79l21.05-12.15c1.69-1,1.48-2.68-.47-3.81l-6.9-4a7.3,7.3,0,0,0-6.59-.27l-21.05,12.15c-1.69,1-1.48,2.68.47,3.81l6.9,4A7.33,7.33,0,0,0,328.49,760.79Z"/><path class="cls-13" d="M647.52,615l21.05-12.16c1.69-1,1.48-2.68-.47-3.81l-20.86-12a7.33,7.33,0,0,0-6.59-.27l-21,12.15c-1.69,1-1.48,2.68.47,3.81l20.86,12A7.33,7.33,0,0,0,647.52,615Z"/><path class="cls-13" d="M615,633.77l21.06-12.15c1.69-1,1.47-2.68-.48-3.81l-20.86-12a7.3,7.3,0,0,0-6.59-.27l-21,12.15c-1.69,1-1.48,2.68.47,3.81l20.86,12A7.3,7.3,0,0,0,615,633.77Z"/><path class="cls-13" d="M582.51,652.54l21-12.15c1.69-1,1.48-2.68-.48-3.81l-20.85-12a7.32,7.32,0,0,0-6.6-.27l-21,12.15c-1.69,1-1.48,2.68.47,3.81l20.86,12A7.32,7.32,0,0,0,582.51,652.54Z"/><path class="cls-13" d="M550,671.31l21-12.15c1.69-1,1.48-2.68-.47-3.81l-20.86-12a7.32,7.32,0,0,0-6.6-.27l-21,12.15c-1.69,1-1.48,2.68.48,3.81l20.85,12A7.35,7.35,0,0,0,550,671.31Z"/><path class="cls-13" d="M517.49,690.08l21-12.15c1.69-1,1.48-2.68-.47-3.81l-20.86-12a7.35,7.35,0,0,0-6.6-.28L489.56,674c-1.69,1-1.47,2.68.48,3.81l20.85,12A7.35,7.35,0,0,0,517.49,690.08Z"/><path class="cls-13" d="M485,708.85l21-12.15c1.69-1,1.48-2.68-.47-3.81l-20.86-12a7.33,7.33,0,0,0-6.59-.28l-21.05,12.16c-1.69,1-1.48,2.68.47,3.8l20.86,12.05A7.33,7.33,0,0,0,485,708.85Z"/><path class="cls-13" d="M452.47,727.62l21-12.16c1.69-1,1.48-2.68-.47-3.8l-20.86-12a7.36,7.36,0,0,0-6.59-.27L424.55,711.5c-1.69,1-1.48,2.68.47,3.8l20.86,12A7.33,7.33,0,0,0,452.47,727.62Z"/><path class="cls-13" d="M420,746.39,441,734.23c1.69-1,1.48-2.68-.47-3.8l-20.86-12a7.33,7.33,0,0,0-6.59-.27l-21,12.15c-1.69,1-1.48,2.68.47,3.81l20.86,12A7.33,7.33,0,0,0,420,746.39Z"/><path class="cls-13" d="M387.46,765.16,408.51,753c1.69-1,1.47-2.68-.48-3.81l-20.85-12a7.35,7.35,0,0,0-6.6-.27L359.53,749c-1.69,1-1.48,2.68.47,3.81l20.86,12A7.35,7.35,0,0,0,387.46,765.16Z"/><path class="cls-13" d="M833.38,617.32l62-35.79c1.7-1,1.48-2.68-.47-3.81l-20.86-12a7.3,7.3,0,0,0-6.59-.27l-62,35.79c-1.69,1-1.47,2.68.48,3.81l20.85,12A7.32,7.32,0,0,0,833.38,617.32Z"/><path class="cls-13" d="M434,847.9l62-35.79c1.69-1,1.48-2.68-.47-3.81l-20.86-12a7.33,7.33,0,0,0-6.59-.28l-62,35.8c-1.69,1-1.48,2.68.47,3.81l20.86,12A7.33,7.33,0,0,0,434,847.9Z"/><path class="cls-13" d="M564,814.3l21-12.15c1.69-1,1.48-2.68-.47-3.81L559.74,784a7.36,7.36,0,0,0-6.59-.27l-21,12.15c-1.69,1-1.48,2.69.47,3.81L557.42,814A7.33,7.33,0,0,0,564,814.3Z"/><path class="cls-13" d="M800.09,678l33.66-19.44c1.69-1,1.48-2.68-.47-3.8l-24.85-14.35a7.3,7.3,0,0,0-6.59-.27l-33.67,19.44c-1.69,1-1.48,2.68.48,3.8l24.84,14.35A7.35,7.35,0,0,0,800.09,678Z"/><path class="cls-13" d="M595.33,796.22,629,776.78c1.69-1,1.48-2.68-.47-3.81l-24.85-14.34a7.35,7.35,0,0,0-6.6-.28l-33.66,19.44c-1.69,1-1.48,2.68.47,3.81l24.85,14.34A7.33,7.33,0,0,0,595.33,796.22Z"/><path class="cls-13" d="M753.19,705.08l33.66-19.44c1.69-1,1.48-2.68-.47-3.8l-24.85-14.35a7.3,7.3,0,0,0-6.59-.27l-33.67,19.43c-1.69,1-1.48,2.69.47,3.81l24.85,14.35A7.35,7.35,0,0,0,753.19,705.08Z"/><path class="cls-13" d="M754.71,667.35,608.34,751.86c-1.82,1-1.82,2.74,0,3.79l25.34,14.63a7.25,7.25,0,0,0,6.57,0l146.37-84.5Z"/><path class="cls-13" d="M473.16,848.33l-23.45,13.54c-1.39.8-1.21,2.2.39,3.12l10.16,5.87a6,6,0,0,0,5.4.22l23.45-13.54c1.39-.8,1.21-2.19-.39-3.12l-10.16-5.87A6,6,0,0,0,473.16,848.33Z"/><path class="cls-13" d="M505.93,829.41l-23.45,13.53c-1.38.8-1.21,2.2.39,3.12L493,851.93a6,6,0,0,0,5.4.23l23.45-13.54c1.39-.8,1.21-2.2-.39-3.12l-10.16-5.87A6,6,0,0,0,505.93,829.41Z"/><path class="cls-13" d="M538.44,810.64,515,824.17c-1.38.8-1.21,2.2.39,3.13l10.17,5.86a6,6,0,0,0,5.4.23l23.45-13.54c1.38-.8,1.21-2.2-.39-3.12l-10.16-5.87A6,6,0,0,0,538.44,810.64Z"/><path class="cls-13" d="M488,819l-23.45,13.54c-1.38.8-1.21,2.2.39,3.12l10.17,5.87a6,6,0,0,0,5.4.22l23.45-13.54c1.38-.8,1.21-2.19-.39-3.12l-10.16-5.86A6,6,0,0,0,488,819Z"/><path class="cls-8" d="M907.71,758.32,822.4,709.07a19.35,19.35,0,0,0-19.41,0L656.34,794.55a8,8,0,0,0,.07,13.8L741.91,857a20,20,0,0,0,20.07-.14l145.79-85.74A7.42,7.42,0,0,0,907.71,758.32Z"/><path class="cls-11" d="M353.59,684.12,659.36,507.73l5.2,3.39a6.69,6.69,0,0,1-.32,11.39L376.12,688.87a15,15,0,0,1-15.54-.32Z"/><text class="cls-15" transform="matrix(0.87, -0.5, 0, 1, 308.11, 422.77)">Starting principal: $18,000<tspan x="0" y="32.69">Annual addition: $12,000</tspan><tspan x="0" y="65.38">Add at each period&apos;s: beginning</tspan><tspan x="0" y="98.06">Annual growth rate: 6</tspan><tspan x="0" y="130.75">After: 20 years</tspan><tspan class="cls-16"><tspan x="0" y="204.21">End balance:	$525,641.16</tspan></tspan></text><polyline class="cls-17" points="671.03 155.47 286.92 377.24 286.92 340.37"/><ellipse class="cls-14" cx="286.92" cy="340.37" rx="11.4" ry="6.42" transform="translate(-157.82 359.95) rotate(-52.39)"/><text class="cls-18" transform="matrix(0.87, -0.5, 0, 1, 532.21, 222.2)">ANNUITY</text><path class="cls-19" d="M1173.91,575.78,1684,870.29a12.87,12.87,0,0,0,12.87,0h0a12.87,12.87,0,0,0,0-22.29L1186.78,553.49a12.87,12.87,0,0,0-12.87,0h0A12.87,12.87,0,0,0,1173.91,575.78Z"/><path class="cls-8" d="M1183.27,530V111.21c0-17.33,10.54-25.29,23.54-17.79l479.53,277.46c13,7.5,23.54,27.64,23.54,45V834.63Z"/><path class="cls-11" d="M1716.55,831.08V412.3c0-17.33-10.54-37.46-23.54-45L1213.48,89.88c-5.15-3-9.9-3.52-13.78-2-.49.19-7,3.67-7.51,3.93h0c4-1.94,9.09-1.58,14.64,1.62l479.53,277.46c13,7.5,23.54,27.64,23.54,45V834.63Z"/><path class="cls-13" d="M1716.55,440.6V412.3c0-17.33-10.54-37.46-23.54-45L1213.48,89.88c-5.15-3-9.9-3.52-13.78-2-.49.19-7,3.67-7.51,3.93h0c4-1.94,9.09-1.58,14.64,1.62l479.53,277.46c13,7.5,23.54,27.64,23.54,45v28.29Z"/><path class="cls-20" d="M1686.34,370.88,1206.81,93.42c-13-7.5-23.54.46-23.54,17.79V139L1709.88,443.6V415.85C1709.88,398.52,1699.34,378.38,1686.34,370.88Z"/><ellipse class="cls-21" cx="1282.8" cy="167.82" rx="8.23" ry="14.26" transform="translate(90.66 670.36) rotate(-30.31)"/><path class="cls-21" d="M1261,155.88c0,6.41-4.53,9-10.11,5.77s-10.12-11-10.12-17.45,4.53-9,10.12-5.77S1261,149.47,1261,155.88Z"/><path class="cls-21" d="M1228.85,137.66c0,6.41-4.53,9-10.12,5.77s-10.11-11-10.11-17.45,4.53-9,10.11-5.77S1228.85,131.25,1228.85,137.66Z"/><polygon class="cls-22" points="1486.95 394.95 1486.95 591.19 1480.25 587.33 1480.25 391.09 1486.95 394.95"/><polygon class="cls-23" points="1486.95 494.72 1480.25 490.86 1480.25 391.09 1486.95 394.96 1486.95 494.72"/><polygon class="cls-22" points="1475.71 404.54 1475.71 584.71 1469.02 580.84 1469.02 400.68 1475.71 404.54"/><polygon class="cls-23" points="1475.71 492.34 1469.02 488.48 1469.02 400.68 1475.71 404.55 1475.71 492.34"/><polygon class="cls-22" points="1464.47 412.68 1464.47 578.22 1457.78 574.35 1457.78 408.81 1464.47 412.68"/><polygon class="cls-23" points="1464.47 490.64 1457.78 486.78 1457.78 408.81 1464.47 412.68 1464.47 490.64"/><polygon class="cls-22" points="1453.23 419.35 1453.23 571.73 1446.54 567.87 1446.54 415.48 1453.23 419.35"/><polygon class="cls-23" points="1453.24 488.96 1446.54 485.09 1446.54 415.48 1453.24 419.35 1453.24 488.96"/><polygon class="cls-22" points="1442 427.24 1442 565.24 1435.31 561.38 1435.31 423.37 1442 427.24"/><polygon class="cls-23" points="1442 486.58 1435.3 482.72 1435.3 423.37 1442 427.24 1442 486.58"/><polygon class="cls-22" points="1430.76 431.31 1430.76 558.75 1424.07 554.89 1424.07 427.45 1430.76 431.31"/><polygon class="cls-23" points="1430.76 484.21 1424.07 480.34 1424.07 427.45 1430.76 431.31 1430.76 484.21"/><polygon class="cls-22" points="1418.57 436.24 1418.57 551.72 1411.87 547.85 1411.87 432.37 1418.57 436.24"/><polygon class="cls-23" points="1418.57 482.47 1411.87 478.6 1411.87 432.37 1418.57 436.24 1418.57 482.47"/><polygon class="cls-22" points="1407.09 440.94 1407.09 545.09 1400.4 541.23 1400.4 437.08 1407.09 440.94"/><polygon class="cls-23" points="1407.09 480.41 1400.4 476.54 1400.4 437.08 1407.09 440.94 1407.09 480.41"/><polygon class="cls-22" points="1395.46 444.46 1395.46 538.37 1388.76 534.51 1388.76 440.59 1395.46 444.46"/><polyline class="cls-23" points="1388.76 474.03 1388.76 440.59 1395.46 444.46 1395.46 477.89"/><polygon class="cls-22" points="1383.98 447.33 1383.98 531.75 1377.28 527.88 1377.28 443.46 1383.98 447.33"/><polygon class="cls-23" points="1383.98 475.12 1377.29 471.25 1377.29 443.47 1383.98 447.33 1383.98 475.12"/><polygon class="cls-22" points="1372.66 450.66 1372.66 525.21 1365.97 521.35 1365.97 446.8 1372.66 450.66"/><polygon class="cls-23" points="1372.66 473.5 1365.97 469.64 1365.97 446.8 1372.66 450.66 1372.66 473.5"/><polygon class="cls-22" points="1361.19 451.99 1361.19 518.59 1354.49 514.72 1354.49 448.12 1361.19 451.99"/><polygon class="cls-23" points="1361.19 471.93 1354.49 468.07 1354.49 448.12 1361.19 451.99 1361.19 471.93"/><polygon class="cls-22" points="1349.71 453.49 1349.71 511.96 1343.02 508.1 1343.02 449.63 1349.71 453.49"/><polygon class="cls-23" points="1349.71 469.33 1343.02 465.46 1343.02 449.63 1349.71 453.49 1349.71 469.33"/><polygon class="cls-22" points="1338.23 454.81 1338.23 505.33 1331.54 501.47 1331.54 450.94 1338.23 454.81"/><polygon class="cls-23" points="1338.23 467.09 1331.54 463.22 1331.54 450.94 1338.23 454.81 1338.23 467.09"/><polygon class="cls-22" points="1326.76 455.23 1326.76 498.71 1320.06 494.84 1320.06 451.36 1326.76 455.23"/><polygon class="cls-23" points="1326.76 464.6 1320.06 460.74 1320.06 451.36 1326.76 455.22 1326.76 464.6"/><polygon class="cls-22" points="1315.28 454.81 1315.28 492.08 1308.59 488.22 1308.59 450.94 1315.28 454.81"/><polygon class="cls-23" points="1315.28 462.85 1308.59 458.98 1308.59 450.94 1315.28 454.81 1315.28 462.85"/><polygon class="cls-22" points="1303.8 455.58 1303.8 485.46 1297.11 481.59 1297.11 451.72 1303.8 455.58"/><polygon class="cls-23" points="1303.8 460.98 1297.11 457.11 1297.11 451.72 1303.8 455.58 1303.8 460.98"/><polygon class="cls-22" points="1292.33 454.81 1292.33 478.83 1285.63 474.97 1285.63 450.94 1292.33 454.81"/><polygon class="cls-23" points="1292.33 458.73 1285.63 454.87 1285.63 450.94 1292.33 454.81 1292.33 458.73"/><polygon class="cls-22" points="1280.85 453.57 1280.85 472.2 1274.16 468.34 1274.16 449.7 1280.85 453.57"/><polygon class="cls-23" points="1280.85 456.58 1274.16 452.72 1274.16 449.7 1280.85 453.57 1280.85 456.58"/><polygon class="cls-22" points="1269.37 452.43 1269.37 465.58 1262.68 461.71 1262.68 448.56 1269.37 452.43"/><polygon class="cls-23" points="1269.38 454.07 1262.68 450.2 1262.68 448.56 1269.38 452.43 1269.38 454.07"/><polygon class="cls-24" points="1262.68 455.14 1269.37 459 1269.37 465.58 1262.68 461.71 1262.68 455.14"/><polygon class="cls-24" points="1274.16 461.76 1280.85 465.63 1280.85 472.2 1274.16 468.34 1274.16 461.76"/><polygon class="cls-24" points="1285.63 468.39 1292.33 472.25 1292.33 478.83 1285.63 474.97 1285.63 468.39"/><polygon class="cls-24" points="1297.11 475.01 1303.8 478.88 1303.8 485.46 1297.11 481.59 1297.11 475.01"/><polygon class="cls-24" points="1308.59 481.64 1315.28 485.51 1315.28 492.08 1308.59 488.22 1308.59 481.64"/><polygon class="cls-24" points="1320.06 488.26 1326.76 492.13 1326.76 498.71 1320.06 494.84 1320.06 488.26"/><polygon class="cls-24" points="1331.54 494.89 1338.23 498.76 1338.23 505.33 1331.54 501.47 1331.54 494.89"/><polygon class="cls-24" points="1343.02 501.52 1349.71 505.38 1349.71 511.96 1343.02 508.1 1343.02 501.52"/><polygon class="cls-24" points="1354.49 508.14 1361.19 512.01 1361.19 518.59 1354.49 514.72 1354.49 508.14"/><polygon class="cls-24" points="1365.97 514.77 1372.66 518.64 1372.66 525.21 1365.97 521.35 1365.97 514.77"/><polygon class="cls-24" points="1377.28 521.3 1383.98 525.17 1383.98 531.75 1377.28 527.88 1377.28 521.3"/><polygon class="cls-24" points="1388.76 527.93 1395.46 531.79 1395.46 538.37 1388.76 534.51 1388.76 527.93"/><polygon class="cls-24" points="1400.4 534.65 1407.09 538.51 1407.09 545.09 1400.4 541.23 1400.4 534.65"/><polygon class="cls-24" points="1411.87 541.27 1418.57 545.14 1418.57 551.72 1411.87 547.85 1411.87 541.27"/><polygon class="cls-24" points="1424.07 548.31 1430.76 552.18 1430.76 558.75 1424.07 554.89 1424.07 548.31"/><polygon class="cls-24" points="1435.31 554.8 1442 558.67 1442 565.24 1435.31 561.38 1435.31 554.8"/><polygon class="cls-24" points="1446.54 561.29 1453.23 565.15 1453.23 571.73 1446.54 567.87 1446.54 561.29"/><polygon class="cls-24" points="1457.78 567.78 1464.47 571.64 1464.47 578.22 1457.78 574.35 1457.78 567.78"/><polygon class="cls-24" points="1469.02 574.26 1475.71 578.13 1475.71 584.71 1469.02 580.84 1469.02 574.26"/><polygon class="cls-24" points="1486.95 584.62 1486.95 591.19 1480.25 587.33 1480.25 580.75 1486.95 584.62"/><text class="cls-25" transform="matrix(0.87, 0.5, 0, 1, 1343.01, 568.81)">YEAR</text><path class="cls-22" d="M1664,550.5c0,45.34-31.14,64.38-70.24,43.92l-1.47-45.82v-.08c18.07,9.22,32.4.3,32.4-20.72,0-18.74-11.39-41-26.66-53.87l8-39.47C1639.2,461.9,1664,510,1664,550.5Z"/><path class="cls-24" d="M1606.07,434.46l-8,39.47a54,54,0,0,0-7.8-5.51V423.35A115,115,0,0,1,1606.07,434.46Z"/><path class="cls-23" d="M1593.75,594.42c-1.17-.62-2.34-1.26-3.53-1.95-40.74-23.52-73.76-80.44-73.76-127.15s33-65.49,73.76-42v45.07c-19-11-34.45-2.21-34.45,19.6s15.42,48.4,34.45,59.39c.69.4,1.38.77,2.06,1.11v.08Z"/><text class="cls-26" transform="matrix(0.87, 0.5, 0, 1, 1519.49, 471.97)">51%</text><text class="cls-26" transform="matrix(0.87, 0.5, 0, 1, 1584.29, 444.93)">3%</text><text class="cls-26" transform="matrix(0.87, 0.5, 0, 1, 1629.77, 535.64)">46%</text><line class="cls-27" x1="1739.16" y1="810.23" x2="1739.16" y2="810.14"/><path class="cls-24" d="M1547.41,603.26,1521,588c-2.14-1.23-3.87-4.53-3.87-7.38V568.07c0-2.85,1.73-4.16,3.87-2.92l26.44,15.26c2.13,1.23,3.86,4.54,3.86,7.38v12.55C1551.27,603.18,1549.54,604.49,1547.41,603.26Z"/><path class="cls-22" d="M1547.41,639.21,1521,623.94c-2.14-1.23-3.87-4.53-3.87-7.38V604c0-2.85,1.73-4.15,3.87-2.92l26.44,15.26c2.13,1.24,3.86,4.54,3.86,7.38v12.55C1551.27,639.13,1549.54,640.44,1547.41,639.21Z"/><path class="cls-23" d="M1547.41,675.16,1521,659.89c-2.14-1.23-3.87-4.53-3.87-7.38V640c0-2.85,1.73-4.15,3.87-2.92l26.44,15.27c2.13,1.23,3.86,4.53,3.86,7.37v12.55C1551.27,675.08,1549.54,676.39,1547.41,675.16Z"/><text class="cls-28" transform="matrix(0.87, 0.5, 0, 1, 1560.15, 605.27)">Starting Principal</text><text class="cls-28" transform="matrix(0.87, 0.5, 0, 1, 1560.15, 641.62)">Additons</text><text class="cls-28" transform="matrix(0.87, 0.5, 0, 1, 1560.15, 676.85)">Return / Interest</text><text class="cls-25" transform="matrix(0.87, 0.5, 0, 1, 1197.49, 242.45)">$500K</text><text class="cls-25" transform="matrix(0.87, 0.5, 0, 1, 1197.49, 280.45)">$500K</text><text class="cls-25" transform="matrix(0.87, 0.5, 0, 1, 1197.49, 316.27)">$500K</text><text class="cls-25" transform="matrix(0.87, 0.5, 0, 1, 1197.49, 353.72)">$500K</text><text class="cls-25" transform="matrix(0.87, 0.5, 0, 1, 1197.49, 392.03)">$500K</text><text class="cls-25" transform="matrix(0.87, 0.5, 0, 1, 1224.74, 444.49)">$0</text><polygon class="cls-13" points="1500.82 413.37 1248.81 267.87 1248.81 266.8 1500.82 412.29 1500.82 413.37"/><polygon class="cls-13" points="1500.82 450.64 1248.81 305.15 1248.81 304.07 1500.82 449.57 1500.82 450.64"/><polygon class="cls-13" points="1500.82 487.92 1248.81 342.42 1248.81 341.35 1500.82 486.84 1500.82 487.92"/><polygon class="cls-13" points="1500.82 525.19 1248.81 379.69 1248.81 378.62 1500.82 524.12 1500.82 525.19"/><polygon class="cls-13" points="1500.82 562.46 1248.81 416.97 1248.81 415.9 1500.82 561.39 1500.82 562.46"/><polygon class="cls-13" points="1500.82 599.74 1248.81 454.24 1248.81 453.17 1500.82 598.66 1500.82 599.74"/><polygon class="cls-13" points="1254.78 461.84 1253.84 461.3 1253.84 456.61 1254.78 457.15 1254.78 461.84"/><polygon class="cls-13" points="1313.12 495.52 1312.18 494.98 1312.18 490.29 1313.12 490.83 1313.12 495.52"/><polygon class="cls-13" points="1370.26 528.51 1369.33 527.97 1369.33 523.28 1370.26 523.82 1370.26 528.51"/><polygon class="cls-13" points="1428.12 561.91 1427.18 561.37 1427.18 556.69 1428.12 557.23 1428.12 561.91"/><polygon class="cls-13" points="1484.79 594.63 1483.85 594.09 1483.85 589.4 1484.79 589.95 1484.79 594.63"/><text class="cls-29" transform="matrix(0.87, 0.5, 0, 1, 1250.01, 475.31)">0</text><text class="cls-29" transform="matrix(0.87, 0.5, 0, 1, 1308.11, 508.85)">0</text><text class="cls-29" transform="matrix(0.87, 0.5, 0, 1, 1361.18, 539.5)">10</text><text class="cls-29" transform="matrix(0.87, 0.5, 0, 1, 1418.57, 572.63)">15</text><text class="cls-29" transform="matrix(0.87, 0.5, 0, 1, 1475.71, 605.62)">20</text><text class="cls-30" transform="matrix(0.88, 0.51, 0, 1, 1308.59, 195.89)">ANNUITY</text><path class="cls-31" d="M1168.58,863.57c-51.73,0-97.9,11.13-128.13,28.53q-5.85-.32-11.89-.32c-61.4,0-111.18,24.46-111.18,54.63S967.16,1001,1028.56,1001a219.53,219.53,0,0,0,32.14-2.32c28.91,11.69,66.63,18.76,107.88,18.76,91.07,0,164.89-34.45,164.89-77S1259.65,863.57,1168.58,863.57Z"/><path class="cls-32" d="M1084.12,632s6.25-5.77,8.59-5c17.72,6.13,28,56.84,23.68,72.71s-32.27,30-32.27,30a33.17,33.17,0,0,1-9.25-17.17c-1.85-10.46,13.54-19.34,13.54-19.34h1.53l1-2.55.56-4.84S1077,647.06,1084.12,632Z"/><polygon class="cls-33" points="1099.3 686.95 1091.23 675.83 1083.56 691.05 1091.66 695.09 1099.3 686.95"/><path class="cls-34" d="M976.32,718.09l-4.74-12.18L958,698.2s-3.44,1.71.16,4.84a62.66,62.66,0,0,1,6.16,6.15l-11.71-1.71-11-5.65s-3.56,3.78.51,10.43a67.19,67.19,0,0,0,8.33,11L970.75,729Z"/><path class="cls-14" d="M1074.56,927.25s-.85-2-2.26-4.56c-2.79-5.08-7.75-12.46-12.65-11.44-7.39,1.54-8.62,9.38-7.85,14.3s4.92,8.92,6.46,12.46,8.92,16,15.23,13.84,7.84-8.3,5.07-16.15S1074.56,927.25,1074.56,927.25Z"/><path class="cls-35" d="M1075.79,918.94s-8.92-5.53-10.76-7.07-8.6-2.86-10.3,2-2.31,10.12.92,14.73,8.19,15.53,10.09,17.07,6.06,4.9,10.67,2.85c4-1.77,2.94-3.31,3.47-7.62S1075.79,918.94,1075.79,918.94Z"/><path class="cls-35" d="M1078.25,731s6.15,15.69,6.46,30.45-.31,69.82,0,76.58,5.84,40.91,2.77,50.75-7.56,44-7.56,44-10.08,6.77-14.18,0-1.94-29.22-4.4-37.83-2.46-22.45-2.46-28V855s-8-29.83-10.77-57.21S1044.42,721.18,1078.25,731Z"/><path class="cls-14" d="M1049.34,945.13s4.28,14.19,0,16.92c-11.07,7.07-23.3-1.08-29.15.46s-22.83,2-26.52-1.69-7.26-10.05-4.49-15.75c1.38-2.85,18.33,1.91,22,.06s18.46-5.91,18.46-5.91Z"/><path class="cls-35" d="M1049.34,941.7s4.28,14.19,0,16.92c-11.07,7.07-23.3-1.08-29.15.46s-22.83,2-26.52-1.69-6.46-11.69-3.69-13.23,17.53-.61,21.22-2.46,18.46-5.91,18.46-5.91Z"/><path class="cls-36" d="M1068.48,745.78s4.73,25-7,33.29c-6.34,4.48-17.41,65.75-17.41,72.52s10.15,32.6,9.23,48-1.74,44.28-1.74,44.28a15.92,15.92,0,0,1-16.71,2.16c-9.54-4.31-9.54-10.22-9.54-10.22s2.16-9.47,2.16-14.39-11.69-43.67-12-52.9-3.08-15.68-3.08-23.68-8.3-57.51-6.45-75.35,13.53-38.14,13.53-38.14l41.83,2.52Z"/><path class="cls-37" d="M1092.71,627.07c8.26,8.55.28,41.42-2.8,54.34s-6.34,18.24-5.81,26.24,2.18,19.06,2.18,19.06,6.43,16.21-2.28,26.47c-3.2,3.77-20.18,26.64-37.11,24.39s-39-8.74-41.18-16.26a55.82,55.82,0,0,1-2.19-16.35c0-2.87,11.07-39.16,11.07-39.16s-8.51-39.35-2.46-50.44c5-9.12,17.08-18.06,23-21.47,1.53-.89,18-1.28,22.14-2.51,3.2-1,3.4-7,3.4-7s21.08-3.63,24.92-1.41C1092.71,627.07,1091.28,625.58,1092.71,627.07Z"/><path class="cls-34" d="M1059.8,615.07l.61,11.27s-7.5,6.53-15.13,7.63-12.94,1.64-12.94,1.64V616.92Z"/><path class="cls-37" d="M1030.89,688.27s-12.82,37.3-17.22,41.47c-12,11.38-43.37,3.64-45.52,0s-4.62-10.71,4.61-15,20.55-2.21,20.55-2.21,7.13-52.23,18.82-59.3S1036.73,658.75,1030.89,688.27Z"/><path class="cls-14" d="M1062.68,624s-2.09-4.83-2.72-4.37-2.18,4.11-8,5.69-18.67,2-20.28,4.29-3.41,7.77-3.41,7.77,23.64-2.08,28.1-6.54A84.41,84.41,0,0,0,1062.68,624Z"/><path class="cls-38" d="M1017.66,595.64s-1.32,5.83,2.92,3.68,6.57-3.2,6.83-4.69a18.36,18.36,0,0,1,2.16-5.87,5.42,5.42,0,0,0,1.09-2.27S1017.2,591.76,1017.66,595.64Z"/><path class="cls-39" d="M1026,604c0-.46-2.52-9.35-2-12a28,28,0,0,0,.31-6s.45-12.7,12.61-15.67c10.45-2.54,20.14-1.71,28.75,10.75,6.84,9.89,2.91,20.71,2.16,22.91-1.94,5.65-5.08,12.3-7.39,13.22S1043,621.38,1040,620.3s-6.91-3.23-7.62-4.15S1026,604,1026,604Z"/><path class="cls-34" d="M1024.28,586a9.2,9.2,0,0,0-1.23,6,20.18,20.18,0,0,1,.55,5.23c.06,2.16-1,.93.06,4.31A57,57,0,0,1,1026,612.3c.15,2.46,6.3,6.64,7.84,7.32s6.15.68,6.15.68l-6-3.49s1.63-.66.81-3.89-1.66-5.69-3.29-5.85-1.63,2-1.63,2-4-8.76-4.46-10.61S1024.28,586,1024.28,586Z"/><polygon class="cls-38" points="1031.44 607.08 1017.66 595.64 1017.66 598.8 1029.81 607.08 1031.44 607.08"/><path class="cls-33" d="M1208.94,660.46v8a7.39,7.39,0,0,1-7.72,7.41,34.83,34.83,0,0,1-6.78-1.15c-5.47-1.47-9.08-9.37-9.08-9.37l6.26-7.4Z"/><path class="cls-33" d="M1194.32,616.34c11.58-.82,15.23,9.1,15.39,19.25s-.69,20.55-.93,29.86c0,0-20.15,1.78-20.33-5.51-.15-5.5.68-8.69-1.12-19.93C1185.71,629.9,1183.8,617.11,1194.32,616.34Z"/><path class="cls-33" d="M1162.43,591.72l21.08,9.36,9.15,20.3-10.23,12.19-12,1.69H1156l-2-6.59s1.34-11.75-3.38-21.17c-.92-1.3,0-6.27,0-6.27Z"/><path class="cls-33" d="M1137.59,580.69a34.35,34.35,0,0,1,5.73-12.56c1.22-.89,5.22,1.35,5.22,1.35l9.65,14.69-1.34,18.8s-6.09,5.57-9,5.34c-4.94-.43-9.56-14.14-9.73-16.78s.73-5.42.42-6.62S1137.35,582.62,1137.59,580.69Z"/><path class="cls-40" d="M1172.37,560c18.32,5.5,16.44,20.75,16.44,20.75l1.21,21.16s-7,10.61-12.53,11c-20.44,1.56-23.27-8.62-23.27-8.62s.12-6.63-5.15-10.5c-2.83-2.11-6.4,1-6.4,1s-3.69-15.12,0-25.29C1143.5,567.29,1150,553.32,1172.37,560Z"/><path class="cls-14" d="M1178.16,874.23c5-1.46,6.3,1.54,14,2,3.05.15,16.6,9.75,17.12,11.1.77,4.22,3.81,11.1,2.38,13.83s-9.44,2.5-12.46-.7c-11.13-11.76-13.44-8.61-24.57-15.76C1170.17,881.34,1173.11,875.65,1178.16,874.23Z"/><path class="cls-14" d="M1153.59,903.67c5.6-1.25,23.1,5.17,23.1,5.17s2.18,11.26-.91,13.31c-5.5,3.64-34.91-3.11-42.25-6.77-7.57-3.78-6.07-10.6-3.36-13.12C1131.74,900.77,1142.62,905.36,1153.59,903.67Z"/><path class="cls-35" d="M1202.31,730.26c3.15,37.89-8.61,60.89-5.19,79.17,14.64,27.28,6.23,50,12.89,77.84-1.13,8.83-21.56.9-19.47-9.81,2.68-15.25-7.57-34.93-13.65-58.36-8-23.66-7.79-29.66-22.47-74.57C1154.64,738,1199.76,728.06,1202.31,730.26Z"/><path class="cls-36" d="M1169.21,710.1l23.32-10.62s9.78,20.28,9.78,32.24c0,18-29.2,26.21-29.2,26.21s-.85,72.42-.2,76.9c13.86,27.53,3.88,46.28,3.78,74-12.19,6.29-23.1-5.17-23.1-5.17s10.07-27-2.75-68.84c-2.93-6.92-23.72-71-17.26-123.81C1148.44,711.58,1169.21,710.1,1169.21,710.1Z"/><path class="cls-39" d="M1187.33,691.05s4.23,6.07,5.2,8.43c-38.19,34-59,11.54-59,11.54l.82-9.54Z"/><path class="cls-23" d="M1154,628.67s8.4,3.92,21-.41,12.6-10.93,12.6-10.93l7.84,1.69s11.9-8.26,7.14,21.14c-2.58,16-15.26,50.89-15.26,50.89s-23.24,29.61-52.93,10.43c1.86-11.47,1-23.76-.38-27.58,0,0-11.3-9.88-9.45-19.33C1126.75,643.48,1154,628.67,1154,628.67Z"/><path class="cls-23" d="M1185.73,579c4.1,1.11,6.44,5.69,5.2,10.19s-5.56,7.27-9.66,6.14-6.43-5.7-5.21-10.2S1181.64,577.91,1185.73,579Z"/><path class="cls-40" d="M1183.51,585.55c3.46-3.69,8.45-1.15,8.45-1.15s17.28,10.77,13.35,26.88-14.48,31.11-14.48,31.11-11.76-14.08-13.16-23.37,2.27-9,2.51-25.49C1180.21,592,1180.05,589.22,1183.51,585.55Z"/><path class="cls-33" d="M1122.91,674.73l-11,19.36L1099.3,687s-6.32,0-7.64,8.14L1103,707.32a15.44,15.44,0,0,0,25.29-3.93l9.91-21.06Z"/><path class="cls-33" d="M1126.44,660.28c4.1-9.4,11.18-19.9,20.64-15.18,7,3.52,7.68,18.21,2.31,26.84s-14.78,19.4-17.86,24.61-23.17,3.87-19.59-2.46C1116.84,685.46,1121.88,670.7,1126.44,660.28Z"/><ellipse class="cls-31" cx="1021.27" cy="408.81" rx="118.06" ry="67.16"/><path class="cls-11" d="M1097.58,446.66H892.85v11.1h0c0,.27,0,.55,0,.82,0,32.92,45.83,59.61,102.37,59.61s102.36-26.69,102.36-59.61c0-.27,0-.55,0-.82h0Z"/><ellipse class="cls-41" cx="995.22" cy="447.08" rx="102.37" ry="59.61"/><path class="cls-13" d="M995.22,506.45c-55.93,0-101.34-26.12-102.32-58.55,0,.36,0,.71,0,1.07,0,32.92,45.83,59.61,102.37,59.61s102.36-26.69,102.36-59.61c0-.36,0-.71,0-1.07C1096.56,480.33,1051.14,506.45,995.22,506.45Z"/><ellipse class="cls-42" cx="995.22" cy="447.46" rx="86.34" ry="49.92"/><path class="cls-43" d="M995.21,432.47c37,0,68.55,13.51,80.81,32.46a32.05,32.05,0,0,0,5.54-17.47c0-27.57-38.66-49.92-86.35-49.92s-86.34,22.35-86.34,49.92a32.05,32.05,0,0,0,5.54,17.47C926.67,446,958.17,432.47,995.21,432.47Z"/><path class="cls-44" d="M1084.77,444V431.22A120.27,120.27,0,0,0,1021,325.06l-9-4.82a5.83,5.83,0,0,1-.28-10.12l15.17-9.21a120.26,120.26,0,0,0,57.9-102.83V161.56H905.67v35.57a120.29,120.29,0,0,0,59.16,103.59l15.36,9a5.83,5.83,0,0,1-.28,10.2l-9.3,4.82a120.27,120.27,0,0,0-64.94,106.79v11.67c-1.41,14.28,7.29,28.87,26.25,39.82,35.18,20.31,92,20.41,127,.23C1077.59,472.51,1086.13,458.12,1084.77,444Z"/><path class="cls-45" d="M1058.36,262.69c-9,13.1-21,23.37-35.26,32l-15.17,9.21a13.09,13.09,0,0,0-6.29,11.56c.08,3.06,2.74,29.42,4.57,47.37A28.71,28.71,0,0,0,1025.05,387c29.34,10.39,52.46,9,52.46,44.19V444.3l0,.35c1.13,11.74-7,23.54-22.26,32.36-15.75,9.09-36.87,14.09-59.49,14.09h0c-22.84,0-44.24-5.09-60.24-14.32-15.56-9-23.82-20.95-22.65-32.82l0-.36v-12c0-35.78,23.55-34.48,53.53-44.93a28.74,28.74,0,0,0,19-24.07c1.94-18,4.76-44.32,4.85-47.43a13.12,13.12,0,0,0-6.44-11.63l-15.36-9.06c-13.15-7.75-24.38-16.68-33.24-28.15Z"/><path class="cls-46" d="M929.89,250.81c0,21.2,29.5,38.38,65.9,38.38s65.9-17.18,65.9-38.38-29.5-38.37-65.9-38.37S929.89,229.62,929.89,250.81Z"/><path class="cls-11" d="M1097.58,155.55H892.85v11.1h0c0,.27,0,.54,0,.82,0,32.92,45.83,59.61,102.37,59.61s102.36-26.69,102.36-59.61c0-.28,0-.55,0-.82h0Z"/><ellipse class="cls-47" cx="995.22" cy="155.96" rx="102.37" ry="59.61"/><path class="cls-13" d="M995.22,215.34c-55.93,0-101.34-26.12-102.32-58.55,0,.36,0,.71,0,1.07,0,32.92,45.83,59.61,102.37,59.61s102.36-26.69,102.36-59.61c0-.36,0-.71,0-1.07C1096.56,189.22,1051.14,215.34,995.22,215.34Z"/><path class="cls-48" d="M986.22,389.84s-48.9,18.22-57.05,34.52-1.44,27.33,14.38,28.29S947.87,425.8,986.22,389.84Z"/></g></g></svg>